<?xml version="1.0" encoding="UTF-8"?>
<svg version="1.1" xmlns="http://www.w3.org/2000/svg" width="500" height="500">
<path d="M0 0 C1.01851547 0.25686584 2.03703094 0.51373169 3.08641052 0.77838135 C6.32945732 1.59862426 9.56896634 2.43199147 12.80859375 3.265625 C14.95746753 3.81074312 17.10655451 4.35502156 19.25585938 4.8984375 C23.39132162 5.94586485 27.52332329 7.00552272 31.65283203 8.07617188 C35.08751423 8.9663244 38.52567143 9.8311834 41.97607422 10.65820312 C43.01863625 10.91540131 43.01863625 10.91540131 44.08226013 11.17779541 C45.8638866 11.61692445 47.64849066 12.04392646 49.43334961 12.46972656 C52.72021869 13.69192491 54.07144548 14.77293154 56.24609375 17.515625 C56.74729919 20.4907074 56.74729919 20.4907074 56.74780273 24.00561523 C56.75718369 25.32476425 56.76656464 26.64391327 56.77622986 28.0030365 C56.76574178 29.4434371 56.75437147 30.8838315 56.7421875 32.32421875 C56.74234264 33.81193614 56.74383418 35.29965394 56.74659729 36.78736877 C56.74798217 39.91042901 56.73542245 43.0330306 56.71264648 46.15600586 C56.68448315 50.12319986 56.68693689 54.08961929 56.6997366 58.05686855 C56.7067631 61.1345101 56.69882241 64.21197899 56.68647957 67.28959846 C56.68201651 68.74974971 56.68158232 70.20991987 56.68554497 71.67007256 C56.70541873 85.45571603 54.47962415 97.16960362 48.24609375 109.515625 C47.91996094 110.18078125 47.59382812 110.8459375 47.2578125 111.53125 C46.59993629 112.8657098 45.92573317 114.19211666 45.24609375 115.515625 C44.58609375 115.515625 43.92609375 115.515625 43.24609375 115.515625 C43.24609375 116.505625 43.24609375 117.495625 43.24609375 118.515625 C42.58609375 118.515625 41.92609375 118.515625 41.24609375 118.515625 C40.93671875 119.55783203 40.93671875 119.55783203 40.62109375 120.62109375 C38.80505846 124.44405441 36.25743428 126.9055622 33.24609375 129.828125 C32.69953125 130.37791016 32.15296875 130.92769531 31.58984375 131.49414062 C27.51340741 135.515625 27.51340741 135.515625 25.24609375 135.515625 C25.24609375 136.175625 25.24609375 136.835625 25.24609375 137.515625 C19.83432904 141.515625 19.83432904 141.515625 17.24609375 141.515625 C17.24609375 142.175625 17.24609375 142.835625 17.24609375 143.515625 C13.89557108 145.45947749 10.54004984 147.39453867 7.18359375 149.328125 C5.76916992 150.14893555 5.76916992 150.14893555 4.32617188 150.98632812 C-10.26367818 159.37422101 -10.26367818 159.37422101 -17.75390625 158.515625 C-20.63182201 157.56608427 -23.29596775 156.3067866 -26.00390625 154.953125 C-26.75043457 154.58960938 -27.49696289 154.22609375 -28.26611328 153.8515625 C-34.3828846 150.81893306 -40.15152103 147.4228861 -45.75390625 143.515625 C-46.78128906 142.80792969 -47.80867188 142.10023438 -48.8671875 141.37109375 C-54.59740697 137.33008764 -54.59740697 137.33008764 -56.75390625 135.515625 C-56.75390625 134.855625 -56.75390625 134.195625 -56.75390625 133.515625 C-57.3365625 133.2578125 -57.91921875 133 -58.51953125 132.734375 C-60.93419655 131.41728483 -62.57130802 129.96474116 -64.50390625 128.015625 C-65.1175 127.4071875 -65.73109375 126.79875 -66.36328125 126.171875 C-67.75390625 124.515625 -67.75390625 124.515625 -67.75390625 122.515625 C-68.41390625 122.515625 -69.07390625 122.515625 -69.75390625 122.515625 C-70.08390625 121.195625 -70.41390625 119.875625 -70.75390625 118.515625 C-71.41390625 118.515625 -72.07390625 118.515625 -72.75390625 118.515625 C-74.75390625 115.515625 -74.75390625 115.515625 -74.75390625 112.515625 C-75.41390625 112.515625 -76.07390625 112.515625 -76.75390625 112.515625 C-84.7452248 97.3892006 -87.07450102 83.07860711 -87.01953125 66.04296875 C-87.02088314 64.70349558 -87.02282801 63.3640229 -87.02532959 62.02455139 C-87.02824709 59.24719469 -87.02408757 56.4699683 -87.01464844 53.69262695 C-87.00315467 50.13859133 -87.00989653 46.58485459 -87.02179337 43.03082943 C-87.03074994 39.61818507 -87.02448769 36.20562159 -87.01953125 32.79296875 C-87.02357971 31.52009506 -87.02762817 30.24722137 -87.03179932 28.93577576 C-87.025495 27.756772 -87.01919067 26.57776825 -87.01269531 25.36303711 C-87.01110413 24.32747177 -87.00951294 23.29190643 -87.00787354 22.22496033 C-86.74600904 19.4313772 -86.30076506 17.83927841 -84.75390625 15.515625 C-81.43205017 13.30105428 -78.35033124 12.51122691 -74.53515625 11.59765625 C-73.81289856 11.41945343 -73.09064087 11.24125061 -72.34649658 11.05764771 C-69.98360524 10.47566734 -67.61883672 9.90175769 -65.25390625 9.328125 C-61.977226 8.52602868 -58.70143914 7.72032262 -55.42578125 6.9140625 C-54.60579651 6.71278244 -53.78581177 6.51150238 -52.940979 6.30412292 C-47.82751174 5.0439727 -42.73063344 3.73342095 -37.64453125 2.3671875 C-36.42958984 2.04258545 -35.21464844 1.7179834 -33.96289062 1.38354492 C-31.71729353 0.77950973 -29.47365825 0.16811535 -27.23242188 -0.4519043 C-26.22373047 -0.72172119 -25.21503906 -0.99153809 -24.17578125 -1.26953125 C-23.3156543 -1.50551025 -22.45552734 -1.74148926 -21.56933594 -1.98461914 C-13.89775155 -3.34637194 -7.42213871 -1.92915675 0 0 Z M-59.75390625 38.515625 C-61.11929563 41.24640376 -60.88622451 43.47122867 -60.87890625 46.515625 C-60.88148438 47.588125 -60.8840625 48.660625 -60.88671875 49.765625 C-60.94114035 52.47744552 -60.94114035 52.47744552 -59.75390625 54.515625 C-58.72918213 54.54068115 -57.70445801 54.5657373 -56.64868164 54.59155273 C-52.85980949 54.68546984 -49.07112744 54.78572817 -45.2824707 54.88793945 C-43.64026322 54.93134797 -41.99800886 54.97301858 -40.35571289 55.01293945 C-38.0000188 55.0704994 -35.64456197 55.13423392 -33.2890625 55.19921875 C-32.55051529 55.21593124 -31.81196808 55.23264374 -31.05104065 55.24986267 C-25.86777796 55.40175329 -25.86777796 55.40175329 -24.75390625 56.515625 C-24.64077708 58.46820329 -24.59706774 60.42483411 -24.58032227 62.38061523 C-24.56683243 63.63539169 -24.55334259 64.89016815 -24.53944397 66.18296814 C-24.53438402 66.85768599 -24.52932407 67.53240383 -24.52411079 68.22756767 C-24.50774582 70.33279694 -24.48451071 72.43784431 -24.45921326 74.54298401 C-24.38830971 80.5296223 -24.32826642 86.51633498 -24.27709961 92.50317383 C-24.24535215 96.16135549 -24.2040873 99.81932905 -24.15690422 103.47734261 C-24.14085771 104.87398608 -24.12854841 106.27067754 -24.11999702 107.66738701 C-24.10787768 109.61874718 -24.08269888 111.57001317 -24.05688477 113.52124023 C-24.0465773 114.63297104 -24.03626984 115.74470184 -24.02565002 116.89012146 C-24.01644587 119.67345317 -24.01644587 119.67345317 -21.75390625 121.515625 C-18.72962923 121.8361017 -18.72962923 121.8361017 -15.31640625 121.765625 C-13.58583984 121.77335937 -13.58583984 121.77335937 -11.8203125 121.78125 C-8.58204951 121.74831553 -8.58204951 121.74831553 -5.75390625 119.515625 C-5.28221177 116.7772046 -5.28221177 116.7772046 -5.33740234 113.52124023 C-5.32083588 112.26331161 -5.30426941 111.005383 -5.28720093 109.70933533 C-5.28374782 108.33096354 -5.28046619 106.95259132 -5.27734375 105.57421875 C-5.26304055 104.16698197 -5.24728477 102.75975926 -5.23013306 101.35255432 C-5.18822013 97.64579055 -5.16326203 93.93911397 -5.14263916 90.23217773 C-5.10686146 84.29466922 -5.04597625 78.35737576 -4.98414993 72.42009163 C-4.9649988 70.34105105 -4.95331223 68.26206795 -4.94271851 66.18296814 C-4.92732529 64.30080345 -4.92732529 64.30080345 -4.91162109 62.38061523 C-4.90512543 61.26968002 -4.89862976 60.15874481 -4.89193726 59.0141449 C-4.75390625 56.515625 -4.75390625 56.515625 -3.75390625 55.515625 C-1.23510108 55.35574009 1.25951641 55.25628275 3.78125 55.19921875 C4.91112587 55.1680471 4.91112587 55.1680471 6.06382751 55.13624573 C8.47865365 55.07067075 10.89359173 55.01182879 13.30859375 54.953125 C14.94206904 54.9099473 16.57553285 54.86633327 18.20898438 54.82226562 C22.22123839 54.71498138 26.23360539 54.61373679 30.24609375 54.515625 C30.2729447 52.03638699 30.29285922 49.5574366 30.30859375 47.078125 C30.32116211 46.01754883 30.32116211 46.01754883 30.33398438 44.93554688 C30.34262963 43.12868941 30.29829386 41.32174897 30.24609375 39.515625 C28.42370713 37.69323838 25.89853292 38.39564804 23.47361755 38.39120483 C22.6449971 38.39480011 21.81637665 38.39839539 20.96264648 38.40209961 C20.09443268 38.40195358 19.22621887 38.40180756 18.33169556 38.4016571 C15.44766789 38.40235654 12.56370395 38.41015037 9.6796875 38.41796875 C7.68571508 38.41983282 5.6917422 38.42125677 3.69776917 38.42225647 C-1.56136327 38.42608252 -6.82046828 38.43591355 -12.07958984 38.44696045 C-17.441728 38.4571727 -22.80387056 38.46175369 -28.16601562 38.46679688 C-38.69532458 38.47753574 -49.22461314 38.4946132 -59.75390625 38.515625 Z " fill="#075489" transform="translate(264.75390625,131.484375)"/>
<path d="M0 0 C2.93102294 2.02380155 4.74817384 3.7807039 6.625 6.8125 C6.875 9.625 6.875 9.625 6.625 11.8125 C5.16757537 11.89346803 3.70887193 11.95167774 2.25 12 C1.43789063 12.03480469 0.62578125 12.06960938 -0.2109375 12.10546875 C-0.92507813 12.00878906 -1.63921875 11.91210938 -2.375 11.8125 C-3.035 10.8225 -3.695 9.8325 -4.375 8.8125 C-6.35247122 8.44952064 -6.35247122 8.44952064 -8.5 8.625 C-9.77875 8.686875 -11.0575 8.74875 -12.375 8.8125 C-12.705 10.4625 -13.035 12.1125 -13.375 13.8125 C-9.58069515 16.24914398 -5.78255377 17.92280819 -1.5625 19.5 C-0.40105469 19.93699219 0.76039063 20.37398438 1.95703125 20.82421875 C2.83746094 21.15035156 3.71789062 21.47648437 4.625 21.8125 C4.625 22.4725 4.625 23.1325 4.625 23.8125 C5.285 23.8125 5.945 23.8125 6.625 23.8125 C9.07897487 28.87382317 9.44725868 33.39711513 7.625 38.75 C7.295 39.430625 6.965 40.11125 6.625 40.8125 C5.965 40.8125 5.305 40.8125 4.625 40.8125 C4.625 41.4725 4.625 42.1325 4.625 42.8125 C-2.32624048 46.34328882 -7.57688548 47.95180822 -15.3125 45.8125 C-16.323125 45.4825 -17.33375 45.1525 -18.375 44.8125 C-18.375 44.1525 -18.375 43.4925 -18.375 42.8125 C-19.035 42.8125 -19.695 42.8125 -20.375 42.8125 C-20.375 42.1525 -20.375 41.4925 -20.375 40.8125 C-21.035 40.8125 -21.695 40.8125 -22.375 40.8125 C-24.66513653 37.3772952 -24.55342973 35.827169 -24.375 31.8125 C-21.405 31.8125 -18.435 31.8125 -15.375 31.8125 C-15.045 33.1325 -14.715 34.4525 -14.375 35.8125 C-10.76576038 37.01557987 -8.16113423 37.21815724 -4.375 36.8125 C-2.36635641 34.4398026 -2.36635641 34.4398026 -1.375 31.8125 C-3.95149881 27.94775178 -5.95048713 27.68599805 -10.3125 26.25 C-17.09693615 23.9978759 -17.09693615 23.9978759 -20.375 21.8125 C-20.375 21.1525 -20.375 20.4925 -20.375 19.8125 C-21.035 19.8125 -21.695 19.8125 -22.375 19.8125 C-23.97616168 15.00901495 -23.9867046 9.6476138 -22.375 4.8125 C-21.715 4.8125 -21.055 4.8125 -20.375 4.8125 C-20.375 4.1525 -20.375 3.4925 -20.375 2.8125 C-19.715 2.8125 -19.055 2.8125 -18.375 2.8125 C-18.375 2.1525 -18.375 1.4925 -18.375 0.8125 C-12.60976496 -2.26229202 -6.04533379 -2.12706189 0 0 Z " fill="#155785" transform="translate(305.375,310.1875)"/>
<path d="M0 0 C2.97 0 5.94 0 9 0 C9 4.95 9 9.9 9 15 C10.32 14.34 11.64 13.68 13 13 C15.1484375 12.62890625 15.1484375 12.62890625 17.375 12.5625 C18.10460937 12.52253906 18.83421875 12.48257812 19.5859375 12.44140625 C22.42493195 13.09832568 24.61338564 14.04957396 26.80029297 16.00512695 C29.64285094 20.73173282 28.58153452 26.99820782 28.375 32.3125 C28.34792969 33.62541016 28.32085937 34.93832031 28.29296875 36.29101562 C28.2223216 39.52900979 28.12370566 42.76366958 28 46 C25.36 46 22.72 46 20 46 C19.98018066 45.37955811 19.96036133 44.75911621 19.93994141 44.11987305 C19.84468155 41.30865463 19.73500698 38.49817834 19.625 35.6875 C19.5940625 34.71103516 19.563125 33.73457031 19.53125 32.72851562 C19.49257813 31.79072266 19.45390625 30.85292969 19.4140625 29.88671875 C19.3826416 29.02264404 19.3512207 28.15856934 19.31884766 27.26831055 C19.12811963 24.72257555 19.12811963 24.72257555 17 22 C14.02934491 22.34227572 14.02934491 22.34227572 11 23 C9.79729036 25.40541929 9.79683337 27.10366591 9.68359375 29.7890625 C9.62075195 31.20058594 9.62075195 31.20058594 9.55664062 32.640625 C9.51732422 33.62546875 9.47800781 34.6103125 9.4375 35.625 C9.39431641 36.61757813 9.35113281 37.61015625 9.30664062 38.6328125 C9.20038931 41.08839838 9.09835036 43.54408703 9 46 C6.03 46 3.06 46 0 46 C0 30.82 0 15.64 0 0 Z " fill="#22618E" transform="translate(347,309)"/>
<path d="M0 0 C2.64 0 5.28 0 8 0 C8.33 4.95 8.66 9.9 9 15 C9.99 14.34 10.98 13.68 12 13 C14.12109375 12.734375 14.12109375 12.734375 16.4375 12.75 C17.19933594 12.74484375 17.96117187 12.7396875 18.74609375 12.734375 C21.21443018 13.0252708 22.857686 13.77024344 25 15 C25 15.66 25 16.32 25 17 C25.66 17 26.32 17 27 17 C28.07917226 20.23751678 28.11425601 22.57751771 28.09765625 25.98046875 C28.09443359 27.14384766 28.09121094 28.30722656 28.08789062 29.50585938 C28.07951172 30.72080078 28.07113281 31.93574219 28.0625 33.1875 C28.05798828 34.41404297 28.05347656 35.64058594 28.04882812 36.90429688 C28.03703065 39.93624668 28.02056921 42.96809906 28 46 C25.36 46 22.72 46 20 46 C19.97494385 45.41508789 19.9498877 44.83017578 19.92407227 44.22753906 C19.80777038 41.56815529 19.68519933 38.90909597 19.5625 36.25 C19.52318359 35.32960938 19.48386719 34.40921875 19.44335938 33.4609375 C19.40146484 32.57148438 19.35957031 31.68203125 19.31640625 30.765625 C19.27974854 29.94868164 19.24309082 29.13173828 19.20532227 28.29003906 C19.00865725 26.0965577 18.59699406 24.11603587 18 22 C15.36 22 12.72 22 10 22 C10 22.99 10 23.98 10 25 C9.34 25 8.68 25 8 25 C8 31.93 8 38.86 8 46 C5.36 46 2.72 46 0 46 C0 30.82 0 15.64 0 0 Z " fill="#064E82" transform="translate(250,309)"/>
<path d="M0 0 C2.64 0 5.28 0 8 0 C8 4.95 8 9.9 8 15 C9.32 14.34 10.64 13.68 12 13 C14.21875 12.734375 14.21875 12.734375 16.5 12.75 C17.2528125 12.74484375 18.005625 12.7396875 18.78125 12.734375 C21.2296721 13.02749596 22.87304054 13.78183231 25 15 C25 15.66 25 16.32 25 17 C25.66 17 26.32 17 27 17 C28.01085428 20.34386398 28.11543463 23.3748118 28.09765625 26.859375 C28.09443359 27.97441406 28.09121094 29.08945312 28.08789062 30.23828125 C28.07951172 31.39714844 28.07113281 32.55601562 28.0625 33.75 C28.05798828 34.92433594 28.05347656 36.09867187 28.04882812 37.30859375 C28.03705094 40.20578072 28.02060326 43.10286454 28 46 C25.36 46 22.72 46 20 46 C19.97494385 45.41508789 19.9498877 44.83017578 19.92407227 44.22753906 C19.80777038 41.56815529 19.68519933 38.90909597 19.5625 36.25 C19.52318359 35.32960938 19.48386719 34.40921875 19.44335938 33.4609375 C19.40146484 32.57148438 19.35957031 31.68203125 19.31640625 30.765625 C19.27974854 29.94868164 19.24309082 29.13173828 19.20532227 28.29003906 C19.00865725 26.0965577 18.59699406 24.11603587 18 22 C13.92106268 21.60168777 13.92106268 21.60168777 10.33276367 23.20629883 C8.60647967 25.52961969 8.57549176 27.0087719 8.48828125 29.88671875 C8.45283203 30.82451172 8.41738281 31.76230469 8.38085938 32.72851562 C8.34702148 34.19321289 8.34702148 34.19321289 8.3125 35.6875 C8.27833984 36.67556641 8.24417969 37.66363281 8.20898438 38.68164062 C8.12649462 41.12098053 8.05734932 43.55996063 8 46 C5.36 46 2.72 46 0 46 C0 30.82 0 15.64 0 0 Z " fill="#035187" transform="translate(82,309)"/>
<path d="M0 0 C0.9384375 -0.00515625 1.876875 -0.0103125 2.84375 -0.015625 C5.54047676 0.25404768 7.18949293 0.8767741 9.5 2.25 C9.5 2.91 9.5 3.57 9.5 4.25 C10.16 4.25 10.82 4.25 11.5 4.25 C12.18771754 5.40438301 12.84897292 6.57453444 13.5 7.75 C13.87125 8.3996875 14.2425 9.049375 14.625 9.71875 C15.5 12.25 15.5 12.25 15.5 20.25 C8.24 20.25 0.98 20.25 -6.5 20.25 C-5.08237487 25.18811335 -5.08237487 25.18811335 -2.1875 26.75 C0.54330817 27.56795832 0.54330817 27.56795832 2.75 25.875 C6.63840829 23.57730419 10.08855495 23.99050323 14.5 24.25 C14.17 25.9 13.84 27.55 13.5 29.25 C12.84 29.25 12.18 29.25 11.5 29.25 C11.29375 29.86875 11.0875 30.4875 10.875 31.125 C9.5 33.25 9.5 33.25 6.9375 34.5625 C1.32278409 35.68544318 -3.42169604 34.95583908 -8.8125 33.125 C-12.35902188 30.65068241 -14.30470004 28.3656351 -15.5 24.25 C-16.67390959 11.36634226 -16.67390959 11.36634226 -13.5 6.25 C-12.84 6.25 -12.18 6.25 -11.5 6.25 C-11.5 5.59 -11.5 4.93 -11.5 4.25 C-10.84 4.25 -10.18 4.25 -9.5 4.25 C-9.5 3.59 -9.5 2.93 -9.5 2.25 C-6.2396882 0.31226752 -3.77138064 -0.02072187 0 0 Z M-3.5 8.25 C-5.75229953 10.92355361 -5.75229953 10.92355361 -6.5 14.25 C-2.21 14.25 2.08 14.25 6.5 14.25 C5.04711014 9.6658037 5.04711014 9.6658037 3.5 8.25 C0.08428147 7.74968794 0.08428147 7.74968794 -3.5 8.25 Z " fill="#0B4F80" transform="translate(128.5,321.75)"/>
<path d="M0 0 C0.55816406 0.32484375 1.11632812 0.6496875 1.69140625 0.984375 C1.69140625 1.644375 1.69140625 2.304375 1.69140625 2.984375 C2.31015625 3.2525 2.92890625 3.520625 3.56640625 3.796875 C6.93186271 5.67757126 8.05914342 8.42625174 9.06640625 11.984375 C10.35435327 17.90697987 8.1137467 22.62920086 5.69140625 27.984375 C5.03140625 27.984375 4.37140625 27.984375 3.69140625 27.984375 C3.69140625 28.644375 3.69140625 29.304375 3.69140625 29.984375 C-1.42556983 33.23302739 -5.21878469 34.56551286 -11.265625 33.53515625 C-16.07826543 32.23767575 -19.70171806 29.4859214 -22.375 25.32421875 C-23.64508725 22.14102936 -23.5730764 19.4022804 -23.55859375 15.984375 C-23.56375 14.7675 -23.56890625 13.550625 -23.57421875 12.296875 C-23.32840934 9.23148709 -22.92351715 7.54774548 -21.30859375 4.984375 C-20.64859375 4.984375 -19.98859375 4.984375 -19.30859375 4.984375 C-19.30859375 4.324375 -19.30859375 3.664375 -19.30859375 2.984375 C-18.64859375 2.984375 -17.98859375 2.984375 -17.30859375 2.984375 C-17.30859375 2.324375 -17.30859375 1.664375 -17.30859375 0.984375 C-12.20624309 -1.73687869 -5.34467721 -2.35129623 0 0 Z M-12.62109375 9.109375 C-14.49803327 12.30712382 -15.23292994 14.27684815 -15.30859375 17.984375 C-14.00667122 21.96672627 -13.13991379 23.53257063 -9.43359375 25.546875 C-6.33063974 26.19798545 -6.33063974 26.19798545 -3.49609375 25.171875 C-0.61988516 22.29566641 -0.46295465 20.17866535 -0.23046875 16.20703125 C-0.37236305 12.17013851 -1.48879968 9.80416907 -4.30859375 6.984375 C-8.20443275 6.39152993 -9.67184258 6.39925231 -12.62109375 9.109375 Z " fill="#3D759E" transform="translate(435.30859375,323.015625)"/>
<path d="M0 0 C4.88604333 2.64054256 7.07453408 5.31974618 9.2109375 10.3046875 C10.26174034 16.32292197 9.73520273 22.06186252 6.6328125 27.43359375 C2.79227417 32.27469338 -0.86717893 33.82031138 -6.9765625 34.6171875 C-11.21597889 34.10845753 -14.42391694 32.33303168 -18.1015625 30.2421875 C-18.1015625 29.5821875 -18.1015625 28.9221875 -18.1015625 28.2421875 C-18.7615625 28.2421875 -19.4215625 28.2421875 -20.1015625 28.2421875 C-22.74602222 22.07178149 -24.70732399 16.62654607 -22.3046875 10.06640625 C-17.88824977 0.77490071 -10.35019271 -3.73222562 0 0 Z M-13.1015625 11.2421875 C-14.63371138 14.30648526 -14.33094798 16.8587517 -14.1015625 20.2421875 C-13.14488217 23.17121053 -13.14488217 23.17121053 -11.1015625 25.2421875 C-7.48422188 26.29724518 -5.69158631 26.4388621 -2.1015625 25.2421875 C0.86459984 20.79294398 0.53111292 16.45980701 -0.1015625 11.2421875 C-1.5647516 8.4404392 -1.5647516 8.4404392 -4.1015625 7.2421875 C-8.59384175 6.34373165 -10.28870217 7.82657138 -13.1015625 11.2421875 Z " fill="#0C5182" transform="translate(401.1015625,322.7578125)"/>
<path d="M0 0 C2.97 0 5.94 0 9 0 C9.02505615 0.69150146 9.0501123 1.38300293 9.07592773 2.09545898 C9.19152161 5.20967866 9.31441242 8.32356789 9.4375 11.4375 C9.47681641 12.52611328 9.51613281 13.61472656 9.55664062 14.73632812 C9.61948242 16.28803711 9.61948242 16.28803711 9.68359375 17.87109375 C9.72025146 18.82943115 9.75690918 19.78776855 9.79467773 20.77514648 C9.75834424 22.97138925 9.75834424 22.97138925 11 24 C14 24.16666667 14 24.16666667 17 24 C18.68300669 22.31699331 18.22809077 20.17991273 18.31640625 17.87109375 C18.35830078 16.83662109 18.40019531 15.80214844 18.44335938 14.73632812 C18.48267578 13.64771484 18.52199219 12.55910156 18.5625 11.4375 C18.60568359 10.34501953 18.64886719 9.25253906 18.69335938 8.12695312 C18.79982068 5.41810436 18.90183516 2.70916008 19 0 C21.97 0 24.94 0 28 0 C30.12633638 5.37838027 30.12633638 5.37838027 29.55859375 8.171875 C28.80391511 11.99276545 28.93335098 15.68019452 29 19.5625 C29.14337509 27.95711123 29.14337509 27.95711123 28 32 C27.15695313 32.06058594 26.31390625 32.12117188 25.4453125 32.18359375 C24.34960938 32.26738281 23.25390625 32.35117187 22.125 32.4375 C21.03445312 32.51871094 19.94390625 32.59992188 18.8203125 32.68359375 C16.05271029 32.83001703 16.05271029 32.83001703 14 34 C8.72274989 34.59968751 6.11292798 33.27164725 2 30 C-0.36008817 26.45986775 -0.23463644 24.98878045 -0.1953125 20.80078125 C-0.18886719 19.59228516 -0.18242187 18.38378906 -0.17578125 17.13867188 C-0.15064453 15.2447168 -0.15064453 15.2447168 -0.125 13.3125 C-0.11597656 12.03826172 -0.10695312 10.76402344 -0.09765625 9.45117188 C-0.07405641 6.30059373 -0.04113194 3.15039017 0 0 Z " fill="#1C5B8D" transform="translate(194,323)"/>
<path d="M0 0 C0.71353638 0.00202423 1.42707275 0.00404846 2.16223145 0.00613403 C2.89091431 0.00517731 3.61959717 0.00422058 4.37036133 0.00323486 C5.91377855 0.00255318 7.45719861 0.00440666 9.00061035 0.00857544 C11.37095544 0.01392391 13.74111104 0.00863011 16.1114502 0.00222778 C17.60754437 0.00288857 19.10363842 0.00416973 20.59973145 0.00613403 C21.31326782 0.0041098 22.0268042 0.00208557 22.76196289 0 C27.76602953 0.02399462 27.76602953 0.02399462 28.88098145 1.13894653 C29.02213306 3.80953504 28.92345252 6.46326891 28.88098145 9.13894653 C27.09007891 9.33360985 25.29821639 9.51945867 23.50598145 9.70144653 C22.00937988 9.85806763 22.00937988 9.85806763 20.48254395 10.01785278 C17.88098145 10.13894653 17.88098145 10.13894653 15.88098145 9.13894653 C15.88098145 21.34894653 15.88098145 33.55894653 15.88098145 46.13894653 C12.91098145 46.13894653 9.94098145 46.13894653 6.88098145 46.13894653 C6.88098145 33.92894653 6.88098145 21.71894653 6.88098145 9.13894653 C2.59098145 9.13894653 -1.69901855 9.13894653 -6.11901855 9.13894653 C-6.2166748 2.98660278 -6.2166748 2.98660278 -6.11901855 1.13894653 C-4.41408974 -0.56598228 -2.27367595 0.01090233 0 0 Z " fill="#035085" transform="translate(145.1190185546875,308.8610534667969)"/>
<path d="M0 0 C11.22 0 22.44 0 34 0 C34 2.97 34 5.94 34 9 C32.20909747 9.19466332 30.41723495 9.38051213 28.625 9.5625 C27.12839844 9.71912109 27.12839844 9.71912109 25.6015625 9.87890625 C23 10 23 10 21 9 C21 21.21 21 33.42 21 46 C18.03 46 15.06 46 12 46 C12 33.79 12 21.58 12 9 C10.35 9.33 8.7 9.66 7 10 C4.65834501 9.73128549 2.32115711 9.40961596 0 9 C0 6.03 0 3.06 0 0 Z " fill="#105687" transform="translate(45,309)"/>
<path d="M0 0 C3.91075925 1.98968453 5.57689098 3.36533646 8 7 C8.125 9.6875 8.125 9.6875 8 12 C6.54257537 12.08096803 5.08387193 12.13917774 3.625 12.1875 C2.81289063 12.22230469 2.00078125 12.25710938 1.1640625 12.29296875 C0.44992187 12.19628906 -0.26421875 12.09960938 -1 12 C-1.66 11.01 -2.32 10.02 -3 9 C-5.3431213 9.25561323 -7.67843403 9.59270772 -10 10 C-11.84891267 13.69782533 -11.46801175 17.96339864 -11 22 C-9.5368109 24.8017483 -9.5368109 24.8017483 -7 26 C-4.3566226 26.08805146 -4.3566226 26.08805146 -2 25 C-1.34 24.01 -0.68 23.02 0 22 C1.9453125 21.70703125 1.9453125 21.70703125 4.125 21.8125 C5.40375 21.874375 6.6825 21.93625 8 22 C7.51376147 28.32110092 7.51376147 28.32110092 5.25 31.3125 C0.63529628 34.77352779 -3.24860677 35.58488745 -9 35 C-13.55480704 33.5755566 -16.39752563 31.70790738 -19.5 28.0625 C-22.06123982 22.83802407 -21.6149684 16.64912837 -21 11 C-19.9765625 8.1015625 -19.9765625 8.1015625 -19 6 C-18.34 6 -17.68 6 -17 6 C-16.7525 5.38125 -16.505 4.7625 -16.25 4.125 C-12.92285874 -1.53114015 -5.76028212 -0.69190075 0 0 Z " fill="#30709B" transform="translate(336,322)"/>
<path d="M0 0 C2.97 0 5.94 0 9 0 C9 2.97 9 5.94 9 9 C11.64 9 14.28 9 17 9 C17.04241723 11.33294775 17.04092937 13.66702567 17 16 C16.67 16.33 16.34 16.66 16 17 C13.69 17 11.38 17 9 17 C9.33 22.28 9.66 27.56 10 33 C13.465 33.495 13.465 33.495 17 34 C17 36.31 17 38.62 17 41 C12.38 41 7.76 41 3 41 C3 40.34 3 39.68 3 39 C2.34 39 1.68 39 1 39 C0.18565857 36.14839609 -0.11881242 33.63373869 -0.09765625 30.671875 C-0.09282227 29.47304688 -0.09282227 29.47304688 -0.08789062 28.25 C-0.07951172 27.425 -0.07113281 26.6 -0.0625 25.75 C-0.05798828 24.90953125 -0.05347656 24.0690625 -0.04882812 23.203125 C-0.03707961 21.13538599 -0.01914522 19.06768376 0 17 C-1.65 16.67 -3.3 16.34 -5 16 C-5 13.69 -5 11.38 -5 9 C-3.35 9 -1.7 9 0 9 C0 6.03 0 3.06 0 0 Z " fill="#054C80" transform="translate(230,314)"/>
<path d="M0 0 C2.64 0 5.28 0 8 0 C8 15.18 8 30.36 8 46 C5.03 46 2.06 46 -1 46 C-1.024644 39.60962203 -1.04283317 33.21927148 -1.05493164 26.82885742 C-1.05997308 24.65307127 -1.06680607 22.47728853 -1.07543945 20.30151367 C-1.08751338 17.18146933 -1.09323005 14.06146962 -1.09765625 10.94140625 C-1.10281754 9.96224747 -1.10797882 8.98308868 -1.11329651 7.97425842 C-1.11337204 7.07340012 -1.11344757 6.17254181 -1.11352539 5.24438477 C-1.115746 4.44718521 -1.11796661 3.64998566 -1.12025452 2.82862854 C-1 1 -1 1 0 0 Z " fill="#035287" transform="translate(447,309)"/>
<path d="M0 0 C0 3.3 0 6.6 0 10 C-1.6396875 10.2165625 -1.6396875 10.2165625 -3.3125 10.4375 C-6.93122987 10.88288104 -6.93122987 10.88288104 -10 12 C-10 18.93 -10 25.86 -10 33 C-12.97 33 -15.94 33 -19 33 C-19 22.44 -19 11.88 -19 1 C-15 1 -11 1 -7 1 C-5 0 -5 0 0 0 Z " fill="#035288" transform="translate(191,322)"/>
<path d="M0 0 C2.97 0 5.94 0 9 0 C9 4.95 9 9.9 9 15 C9.66 15.33 10.32 15.66 11 16 C10.01 16.33 9.02 16.66 8 17 C8 12.05 8 7.1 8 2 C6.02 2 4.04 2 2 2 C2.33 5.63 2.66 9.26 3 13 C4.32 11.35 5.64 9.7 7 8 C7.04898437 8.68707031 7.09796875 9.37414062 7.1484375 10.08203125 C7.22320312 10.98308594 7.29796875 11.88414062 7.375 12.8125 C7.44460938 13.70582031 7.51421875 14.59914063 7.5859375 15.51953125 C7.86645036 18.24398499 7.86645036 18.24398499 10 21 C9.34 21 8.68 21 8 21 C8.33 21.66 8.66 22.32 9 23 C9.08449628 24.7404417 9.10723024 26.48409722 9.09765625 28.2265625 C9.09443359 29.2578125 9.09121094 30.2890625 9.08789062 31.3515625 C9.07951172 32.43179688 9.07113281 33.51203125 9.0625 34.625 C9.05798828 35.71296875 9.05347656 36.8009375 9.04882812 37.921875 C9.03701776 40.61463789 9.02054778 43.30729188 9 46 C6.03 46 3.06 46 0 46 C0 30.82 0 15.64 0 0 Z " fill="#4A81A8" transform="translate(347,309)"/>
<path d="M0 0 C0.77988281 -0.01417969 1.55976562 -0.02835937 2.36328125 -0.04296875 C4.8907668 0.20765587 6.50468031 0.92376228 8.6875 2.1875 C8.6875 2.8475 8.6875 3.5075 8.6875 4.1875 C9.3475 4.1875 10.0075 4.1875 10.6875 4.1875 C11.69835428 7.53136398 11.80293463 10.5623118 11.78515625 14.046875 C11.78193359 15.16191406 11.77871094 16.27695312 11.77539062 17.42578125 C11.76701172 18.58464844 11.75863281 19.74351562 11.75 20.9375 C11.74548828 22.11183594 11.74097656 23.28617187 11.73632812 24.49609375 C11.72455094 27.39328072 11.70810326 30.29036454 11.6875 33.1875 C9.0475 33.1875 6.4075 33.1875 3.6875 33.1875 C3.66244385 32.60258789 3.6373877 32.01767578 3.61157227 31.41503906 C3.49527038 28.75565529 3.37269933 26.09659597 3.25 23.4375 C3.21068359 22.51710938 3.17136719 21.59671875 3.13085938 20.6484375 C3.08896484 19.75898438 3.04707031 18.86953125 3.00390625 17.953125 C2.96724854 17.13618164 2.93059082 16.31923828 2.89282227 15.47753906 C2.69615725 13.2840577 2.28449406 11.30353587 1.6875 9.1875 C-3.1022321 8.95321687 -3.1022321 8.95321687 -7.3125 11.1875 C-7.00467504 9.54078588 -6.69110766 7.89514424 -6.375 6.25 C-6.20097656 5.33347656 -6.02695313 4.41695313 -5.84765625 3.47265625 C-4.95025131 -0.35932835 -3.67148351 0.03004487 0 0 Z " fill="#49799D" transform="translate(98.3125,321.8125)"/>
<path d="M0 0 C2.97 0 5.94 0 9 0 C9.01981934 0.68102783 9.03963867 1.36205566 9.06005859 2.0637207 C9.15526983 5.14703917 9.26496466 8.22967649 9.375 11.3125 C9.4059375 12.38435547 9.436875 13.45621094 9.46875 14.56054688 C9.50742188 15.58857422 9.54609375 16.61660156 9.5859375 17.67578125 C9.6173584 18.62364502 9.6487793 19.57150879 9.68115234 20.5480957 C9.8489051 23.2530269 9.8489051 23.2530269 12 26 C14.05925139 26.72382467 14.05925139 26.72382467 16 27 C15.67 28.32 15.34 29.64 15 31 C13.329375 31.2165625 13.329375 31.2165625 11.625 31.4375 C8.17857953 31.78372035 8.17857953 31.78372035 6 33 C1.125 29.25 1.125 29.25 0 27 C-0.08527628 24.96767366 -0.10716135 22.93252994 -0.09765625 20.8984375 C-0.09443359 19.68671875 -0.09121094 18.475 -0.08789062 17.2265625 C-0.07951172 15.95554687 -0.07113281 14.68453125 -0.0625 13.375 C-0.05798828 12.09625 -0.05347656 10.8175 -0.04882812 9.5 C-0.03701203 6.33328708 -0.02053815 3.16666644 0 0 Z " fill="#165888" transform="translate(194,323)"/>
<path d="M0 0 C0.33 0 0.66 0 1 0 C1.17835515 4.54805635 0.99785435 7.8794254 -1 12 C-1.66 12 -2.32 12 -3 12 C-3 12.66 -3 13.32 -3 14 C-9.95124048 17.53078882 -15.20188548 19.13930822 -22.9375 17 C-23.948125 16.67 -24.95875 16.34 -26 16 C-26 15.34 -26 14.68 -26 14 C-26.66 14 -27.32 14 -28 14 C-28 13.34 -28 12.68 -28 12 C-28.66 12 -29.32 12 -30 12 C-32.29013653 8.5647952 -32.17842973 7.014669 -32 3 C-29.03 3 -26.06 3 -23 3 C-22.67 4.32 -22.34 5.64 -22 7 C-18.47005387 8.17664871 -15.70544587 8.19850603 -12 8 C-11.01 7.34 -10.02 6.68 -9 6 C-9 6.66 -9 7.32 -9 8 C-5.87501834 8.3373846 -5.87501834 8.3373846 -3.8125 6 C-3.214375 5.34 -2.61625 4.68 -2 4 C-2 4.66 -2 5.32 -2 6 C-1.34 6 -0.68 6 0 6 C0 4.02 0 2.04 0 0 Z " fill="#064F85" transform="translate(313,339)"/>
<path d="M0 0 C2.31 0 4.62 0 7 0 C7 5.28 7 10.56 7 16 C6.34 15.67 5.68 15.34 5 15 C4.84444836 17.72215369 4.79698784 19.58128742 6 22.0625 C7.44811285 26.3163315 7.2114318 30.35461388 7.125 34.8125 C7.11597656 35.69615234 7.10695313 36.57980469 7.09765625 37.49023438 C7.07419637 39.66027359 7.03832865 41.83017247 7 44 C4.69 44 2.38 44 0 44 C0 29.48 0 14.96 0 0 Z " fill="#044E83" transform="translate(250,310)"/>
<path d="M0 0 C4.68139254 -0.02465288 9.36274759 -0.04283739 14.04418945 -0.05493164 C15.63794614 -0.05997157 17.23169819 -0.0668035 18.82543945 -0.07543945 C21.11150253 -0.08751999 23.39750467 -0.09323155 25.68359375 -0.09765625 C26.40026718 -0.10281754 27.11694061 -0.10797882 27.85533142 -0.11329651 C29.57063672 -0.11349263 31.28581266 -0.06192007 33 0 C34 1 34 1 34.09765625 2.84765625 C34.06510417 4.8984375 34.03255208 6.94921875 34 9 C32.20909747 9.19466332 30.41723495 9.38051213 28.625 9.5625 C27.12839844 9.71912109 27.12839844 9.71912109 25.6015625 9.87890625 C23 10 23 10 21 9 C21 21.21 21 33.42 21 46 C18.03 46 15.06 46 12 46 C12 33.79 12 21.58 12 9 C12.33 9 12.66 9 13 9 C13 20.88 13 32.76 13 45 C15.31 45 17.62 45 20 45 C19.96447021 43.76846191 19.92894043 42.53692383 19.89233398 41.26806641 C19.76220895 36.70977248 19.6389631 32.15131426 19.51782227 27.59277344 C19.46436959 25.6177866 19.40903775 23.64284971 19.35180664 21.66796875 C19.26998674 18.83344292 19.19487082 15.99880764 19.12109375 13.1640625 C19.09405869 12.27756012 19.06702362 11.39105774 19.03916931 10.47769165 C18.88612829 4.22774341 18.88612829 4.22774341 20 2 C19.071875 2.165 18.14375 2.33 17.1875 2.5 C12.14266379 3.23700282 7.08564289 3.08276815 2 3 C2.33 3.99 2.66 4.98 3 6 C5.64 6.33 8.28 6.66 11 7 C11 7.33 11 7.66 11 8 C7.37 8 3.74 8 0 8 C0 5.36 0 2.72 0 0 Z " fill="#22547F" transform="translate(140,309)"/>
<path d="M0 0 C0.9384375 -0.00515625 1.876875 -0.0103125 2.84375 -0.015625 C5.54047676 0.25404768 7.18949293 0.8767741 9.5 2.25 C9.5 2.91 9.5 3.57 9.5 4.25 C10.16 4.25 10.82 4.25 11.5 4.25 C14.82575612 9.8325192 15.96450943 13.74686791 15.5 20.25 C12.63546142 16.83983503 11.15296434 13.34305456 9.5 9.25 C8.20366379 10.31645115 8.20366379 10.31645115 8.4375 12.8125 C8.458125 13.616875 8.47875 14.42125 8.5 15.25 C5.87472811 15.30382106 3.25055287 15.34358313 0.625 15.375 C-0.12136719 15.39175781 -0.86773437 15.40851563 -1.63671875 15.42578125 C-3.59194461 15.4433959 -5.54742021 15.35320189 -7.5 15.25 C-8.16 14.59 -8.82 13.93 -9.5 13.25 C-10.82 13.58 -12.14 13.91 -13.5 14.25 C-13.83 17.55 -14.16 20.85 -14.5 24.25 C-14.83 24.25 -15.16 24.25 -15.5 24.25 C-15.554138 22.00026553 -15.59285491 19.75015617 -15.625 17.5 C-15.64820312 16.24703125 -15.67140625 14.9940625 -15.6953125 13.703125 C-15.51537302 10.52179508 -15.18998582 8.88478104 -13.5 6.25 C-12.84 6.25 -12.18 6.25 -11.5 6.25 C-11.5 5.59 -11.5 4.93 -11.5 4.25 C-10.84 4.25 -10.18 4.25 -9.5 4.25 C-9.5 3.59 -9.5 2.93 -9.5 2.25 C-6.2396882 0.31226752 -3.77138064 -0.02072187 0 0 Z M-3.5 8.25 C-5.75229953 10.92355361 -5.75229953 10.92355361 -6.5 14.25 C-2.21 14.25 2.08 14.25 6.5 14.25 C5.04711014 9.6658037 5.04711014 9.6658037 3.5 8.25 C0.08428147 7.74968794 0.08428147 7.74968794 -3.5 8.25 Z " fill="#105485" transform="translate(128.5,321.75)"/>
<path d="M0 0 C1.485 0.99 1.485 0.99 3 2 C4.32488113 2.36548445 5.66018514 2.6937566 7 3 C8.3303125 3.495 8.3303125 3.495 9.6875 4 C13.13302684 5.04015905 16.27770406 5.40545292 19.8515625 5.65625 C22.21678694 6.03468591 23.92120327 6.83361632 26 8 C26 8.66 26 9.32 26 10 C26.66 10 27.32 10 28 10 C29.28317892 13.84953676 29.06643637 16.94738135 29 21 C27.68 21 26.36 21 25 21 C23.22590192 22.92022703 23.22590192 22.92022703 22 25 C21.01 24.34 20.02 23.68 19 23 C19.20625 22.236875 19.4125 21.47375 19.625 20.6875 C20.33391203 17.78114056 20.33391203 17.78114056 18 15 C15.73343544 14.19619327 13.43597951 13.47792757 11.125 12.8125 C4.6914631 10.77491554 4.6914631 10.77491554 2.1875 7.96875 C0.90125854 5.35843646 0 2.93904515 0 0 Z " fill="#195D8E" transform="translate(284,324)"/>
<path d="M0 0 C6.95913448 -0.50408218 11.30518028 -0.18394918 17 4 C20.1700243 7.1700243 21.12920605 10.64603027 22 15 C21.87496875 17.74587855 21.47682614 20.28209099 21 23 C20.67 23 20.34 23 20 23 C19.505 20.525 19.505 20.525 19 18 C18.34 18.66 17.68 19.32 17 20 C17 18.68 17 17.36 17 16 C16.01 16 15.02 16 14 16 C13.67 19.3 13.34 22.6 13 26 C11.02 26.33 9.04 26.66 7 27 C7.99 26.67 8.98 26.34 10 26 C11.02835363 22.91493912 11.13368434 20.7305728 11.125 17.5 C11.12757813 16.5409375 11.13015625 15.581875 11.1328125 14.59375 C11.10992972 11.88428848 11.10992972 11.88428848 10 9 C5.29575672 8.53042916 5.29575672 8.53042916 1.1875 10.375 C0.795625 10.91125 0.40375 11.4475 0 12 C-0.66 12.66 -1.32 13.32 -2 14 C-2.25 6.375 -2.25 6.375 0 3 C0 2.01 0 1.02 0 0 Z " fill="#256493" transform="translate(389,322)"/>
<path d="M0 0 C3.91075925 1.98968453 5.57689098 3.36533646 8 7 C8.125 9.6875 8.125 9.6875 8 12 C6.54257537 12.08096803 5.08387193 12.13917774 3.625 12.1875 C2.81289063 12.22230469 2.00078125 12.25710938 1.1640625 12.29296875 C0.44992187 12.19628906 -0.26421875 12.09960938 -1 12 C-1.66 11.01 -2.32 10.02 -3 9 C-8.01535052 9.32960216 -8.01535052 9.32960216 -12 12 C-12.33 10.68 -12.66 9.36 -13 8 C-13.61875 8.185625 -14.2375 8.37125 -14.875 8.5625 C-17 9 -17 9 -19 8 C-19 7.34 -19 6.68 -19 6 C-18.34 6 -17.68 6 -17 6 C-16.7525 5.38125 -16.505 4.7625 -16.25 4.125 C-12.92285874 -1.53114015 -5.76028212 -0.69190075 0 0 Z " fill="#2A6892" transform="translate(336,322)"/>
<path d="M0 0 C2.75 -0.25 2.75 -0.25 6 0 C8.375 2 8.375 2 10 4 C13.79547921 3.03223902 13.79547921 3.03223902 17 1 C18.51928038 0.92820036 20.04167482 0.91607993 21.5625 0.9375 C22.38878906 0.94652344 23.21507812 0.95554687 24.06640625 0.96484375 C24.70449219 0.97644531 25.34257812 0.98804688 26 1 C25.67 2.65 25.34 4.3 25 6 C24.34 6 23.68 6 23 6 C22.690625 6.928125 22.690625 6.928125 22.375 7.875 C21 10 21 10 18.4375 11.3125 C12.7517861 12.44964278 7.98426094 11.72154943 2.5625 9.75 C-0.37037494 7.74706102 -1.08596086 6.38194482 -2 3 C-1.34 3 -0.68 3 0 3 C0 2.01 0 1.02 0 0 Z " fill="#2C6A95" transform="translate(117,345)"/>
<path d="M0 0 C2.64 0 5.28 0 8 0 C8 15.18 8 30.36 8 46 C5.03 46 2.06 46 -1 46 C-1.024644 39.60962203 -1.04283317 33.21927148 -1.05493164 26.82885742 C-1.05997308 24.65307127 -1.06680607 22.47728853 -1.07543945 20.30151367 C-1.08751338 17.18146933 -1.09323005 14.06146962 -1.09765625 10.94140625 C-1.10281754 9.96224747 -1.10797882 8.98308868 -1.11329651 7.97425842 C-1.11337204 7.07340012 -1.11344757 6.17254181 -1.11352539 5.24438477 C-1.115746 4.44718521 -1.11796661 3.64998566 -1.12025452 2.82862854 C-1 1 -1 1 0 0 Z M1 2 C1 16.19 1 30.38 1 45 C1.99 45 2.98 45 4 45 C4 44.34 4 43.68 4 43 C4.66 43 5.32 43 6 43 C6 29.47 6 15.94 6 2 C4.35 2 2.7 2 1 2 Z " fill="#4E7594" transform="translate(447,309)"/>
<path d="M0 0 C1.29550781 -0.02126953 1.29550781 -0.02126953 2.6171875 -0.04296875 C5.2491288 0.19890748 6.86480544 0.85766459 9.125 2.1875 C9.125 2.8475 9.125 3.5075 9.125 4.1875 C10.115 4.5175 11.105 4.8475 12.125 5.1875 C12.125 6.8375 12.125 8.4875 12.125 10.1875 C12.785 10.1875 13.445 10.1875 14.125 10.1875 C13.939375 10.72375 13.75375 11.26 13.5625 11.8125 C13.01080676 14.80740614 13.51902556 17.22495829 14.125 20.1875 C13.465 19.1975 12.805 18.2075 12.125 17.1875 C11.465 17.1875 10.805 17.1875 10.125 17.1875 C9.465 18.1775 8.805 19.1675 8.125 20.1875 C8.125 18.5375 8.125 16.8875 8.125 15.1875 C7.465 15.1875 6.805 15.1875 6.125 15.1875 C5.815625 14.383125 5.50625 13.57875 5.1875 12.75 C4.36164655 10.29669595 4.36164655 10.29669595 3.125 9.1875 C1.27608054 8.95386119 -0.57988031 8.77446365 -2.4375 8.625 C-3.44941406 8.54121094 -4.46132813 8.45742188 -5.50390625 8.37109375 C-6.28636719 8.31050781 -7.06882812 8.24992187 -7.875 8.1875 C-7.61938677 5.8443787 -7.28229228 3.50906597 -6.875 1.1875 C-4.42528376 -0.03735812 -2.73265539 0.02027192 0 0 Z " fill="#226190" transform="translate(427.875,321.8125)"/>
<path d="M0 0 C1.9453125 -0.29296875 1.9453125 -0.29296875 4.125 -0.1875 C5.40375 -0.125625 6.6825 -0.06375 8 0 C7.51376147 6.32110092 7.51376147 6.32110092 5.25 9.3125 C0.62195519 12.78353361 -3.23335134 13.50584637 -9 13 C-12.4375 11.5 -12.4375 11.5 -15 10 C-14.01 9.67 -13.02 9.34 -12 9 C-11.67 6.69 -11.34 4.38 -11 2 C-10.443125 2.350625 -9.88625 2.70125 -9.3125 3.0625 C-6.3979332 4.24408113 -4.95034182 4.00932746 -2 3 C-1.34 2.01 -0.68 1.02 0 0 Z " fill="#13568A" transform="translate(336,344)"/>
<path d="M0 0 C0.99 0.33 1.98 0.66 3 1 C3.33 7.27 3.66 13.54 4 20 C6.31 20 8.62 20 11 20 C11 21.65 11 23.3 11 25 C7.04 25 3.08 25 -1 25 C-3.63537118 17.09388645 -3.17981101 9.23134837 -3 1 C-2.34 1 -1.68 1 -1 1 C-0.67 0.67 -0.34 0.34 0 0 Z " fill="#035188" transform="translate(235,329)"/>
<path d="M0 0 C4.91211284 1.22802821 7.35403323 2.62397804 10 7 C10.25 9.8125 10.25 9.8125 10 12 C7.03 12 4.06 12 1 12 C0.67 10.35 0.34 8.7 0 7 C-1.0725 7.020625 -2.145 7.04125 -3.25 7.0625 C-6.14790424 7.0142016 -8.28612141 6.86844115 -11 6 C-11.66 7.32 -12.32 8.64 -13 10 C-13.99 9.67 -14.98 9.34 -16 9 C-16 8.34 -16 7.68 -16 7 C-15.34 7 -14.68 7 -14 7 C-14 5.68 -14 4.36 -14 3 C-9.49243276 0.74621638 -5.92814547 0.91786424 -1 1 C-0.67 0.67 -0.34 0.34 0 0 Z " fill="#21618E" transform="translate(302,310)"/>
<path d="M0 0 C1.39120471 0.00015906 2.78241534 0.00585033 4.17358398 0.01586914 C4.90463852 0.01728409 5.63569305 0.01869904 6.38890076 0.02015686 C8.73253406 0.02577131 11.07607313 0.03832617 13.41967773 0.05102539 C15.00496282 0.05603853 16.59024939 0.06060176 18.17553711 0.06469727 C22.06945383 0.07574542 25.96329979 0.09301967 29.85717773 0.11352539 C29.85717773 0.44352539 29.85717773 0.77352539 29.85717773 1.11352539 C14.51217773 1.60852539 14.51217773 1.60852539 -1.14282227 2.11352539 C-1.19180664 6.56594727 -1.24079102 11.01836914 -1.29125977 15.60571289 C-1.33577971 19.15022979 -1.38227636 22.69470845 -1.43011475 26.23918152 C-1.48011133 29.98388028 -1.52660341 33.72854831 -1.56469727 37.47338867 C-1.60150422 41.07856864 -1.64785104 44.68350999 -1.70088577 48.28848648 C-1.71945428 49.66558787 -1.73455314 51.04274045 -1.74616623 52.41991806 C-1.762986 54.3450694 -1.79315709 56.27009022 -1.82397461 58.19506836 C-1.83729828 59.29205048 -1.85062195 60.38903259 -1.86434937 61.51925659 C-2.14282227 64.11352539 -2.14282227 64.11352539 -4.14282227 66.11352539 C-4.16594886 57.65585205 -4.18373896 49.19819183 -4.19463444 40.74049473 C-4.19986258 36.81363881 -4.20695896 32.88680445 -4.21826172 28.95996094 C-4.22909307 25.17338282 -4.23509962 21.38682549 -4.23769951 17.60023308 C-4.23955331 16.1524822 -4.24317307 14.70473251 -4.24855232 13.25699043 C-4.25576594 11.23595404 -4.25623035 9.21489692 -4.25634766 7.19384766 C-4.25856827 6.04135025 -4.26078888 4.88885284 -4.26307678 3.70143127 C-4.08662613 -0.09582889 -3.87294908 0.13989912 0 0 Z " fill="#113D68" transform="translate(263.142822265625,186.886474609375)"/>
<path d="M0 0 C2.64 0 5.28 0 8 0 C8.33 4.95 8.66 9.9 9 15 C9.99 14.34 10.98 13.68 12 13 C16.20884445 12.4031657 19.85784706 12.33142267 23.5625 14.5 C24.036875 14.995 24.51125 15.49 25 16 C22.10765685 16.82638376 20.11257569 17 17 17 C13.88214887 17.64644661 13.88214887 17.64644661 13 20 C13.99 20.33 14.98 20.66 16 21 C14.02 21.33 12.04 21.66 10 22 C10 22.99 10 23.98 10 25 C9.34 25 8.68 25 8 25 C8 31.93 8 38.86 8 46 C5.36 46 2.72 46 0 46 C0 45.67 0 45.34 0 45 C2.31 45 4.62 45 7 45 C6.88576707 41.93675381 6.75902148 38.87489086 6.625 35.8125 C6.5940625 34.94818359 6.563125 34.08386719 6.53125 33.19335938 C6.32411021 28.68806886 5.94383547 25.13848842 4 21 C3.875 18.1875 3.875 18.1875 4 16 C4.66 15.67 5.32 15.34 6 15 C6.47001033 11.72444392 6.47001033 11.72444392 6.625 7.9375 C6.73714844 6.00197266 6.73714844 6.00197266 6.8515625 4.02734375 C6.90054687 3.02832031 6.94953125 2.02929688 7 1 C4.69 1 2.38 1 0 1 C0 0.67 0 0.34 0 0 Z " fill="#356C94" transform="translate(250,309)"/>
<path d="M0 0 C2.97 0 5.94 0 9 0 C9 2.97 9 5.94 9 9 C11.64 9 14.28 9 17 9 C17 11.31 17 13.62 17 16 C16.67 16 16.34 16 16 16 C16 14.02 16 12.04 16 10 C13.36 10 10.72 10 8 10 C8 7.03 8 4.06 8 1 C5.69 1 3.38 1 1 1 C1 3.97 1 6.94 1 10 C-0.32 10 -1.64 10 -3 10 C-3 11.65 -3 13.3 -3 15 C-2.38125 14.79375 -1.7625 14.5875 -1.125 14.375 C-0.073125 14.189375 -0.073125 14.189375 1 14 C3 16 3 16 3.22705078 18.24658203 C3.21134033 19.61339111 3.21134033 19.61339111 3.1953125 21.0078125 C3.18564453 22.48701172 3.18564453 22.48701172 3.17578125 23.99609375 C3.15902344 25.02863281 3.14226562 26.06117188 3.125 27.125 C3.11597656 28.16527344 3.10695312 29.20554687 3.09765625 30.27734375 C3.07403867 32.85165997 3.03816684 35.42585838 3 38 C7.29 38.66 11.58 39.32 16 40 C16 38.35 16 36.7 16 35 C13.69 35 11.38 35 9 35 C9.33 34.34 9.66 33.68 10 33 C13.465 33.495 13.465 33.495 17 34 C17 36.31 17 38.62 17 41 C12.38 41 7.76 41 3 41 C3 40.34 3 39.68 3 39 C2.34 39 1.68 39 1 39 C0.18565857 36.14839609 -0.11881242 33.63373869 -0.09765625 30.671875 C-0.09282227 29.47304688 -0.09282227 29.47304688 -0.08789062 28.25 C-0.07951172 27.425 -0.07113281 26.6 -0.0625 25.75 C-0.05798828 24.90953125 -0.05347656 24.0690625 -0.04882812 23.203125 C-0.03707961 21.13538599 -0.01914522 19.06768376 0 17 C-1.65 16.67 -3.3 16.34 -5 16 C-5 13.69 -5 11.38 -5 9 C-3.35 9 -1.7 9 0 9 C0 6.03 0 3.06 0 0 Z " fill="#6089AA" transform="translate(230,314)"/>
<path d="M0 0 C0.33 0 0.66 0 1 0 C1.33 2.97 1.66 5.94 2 9 C3.65 8.67 5.3 8.34 7 8 C7 14.93 7 21.86 7 29 C4.69 29 2.38 29 0 29 C0 19.43 0 9.86 0 0 Z " fill="#084D7E" transform="translate(348,326)"/>
<path d="M0 0 C0 3.3 0 6.6 0 10 C-1.6396875 10.2165625 -1.6396875 10.2165625 -3.3125 10.4375 C-6.93122987 10.88288104 -6.93122987 10.88288104 -10 12 C-9.67 10.02 -9.34 8.04 -9 6 C-9.66 6 -10.32 6 -11 6 C-11 4.68 -11 3.36 -11 2 C-13.31 2 -15.62 2 -18 2 C-18 12.23 -18 22.46 -18 33 C-18.33 33 -18.66 33 -19 33 C-19 22.44 -19 11.88 -19 1 C-15 1 -11 1 -7 1 C-5 0 -5 0 0 0 Z " fill="#4F82A9" transform="translate(191,322)"/>
<path d="M0 0 C0.33 0 0.66 0 1 0 C1.17835515 4.54805635 0.99785435 7.8794254 -1 12 C-1.66 12 -2.32 12 -3 12 C-3 12.66 -3 13.32 -3 14 C-9.95124048 17.53078882 -15.20188548 19.13930822 -22.9375 17 C-23.948125 16.67 -24.95875 16.34 -26 16 C-26 15.67 -26 15.34 -26 15 C-20.72 15 -15.44 15 -10 15 C-10.66 13.68 -11.32 12.36 -12 11 C-14.67790463 10.16113831 -17.1737941 10.18233586 -20 10 C-19.67 9.34 -19.34 8.68 -19 8 C-17.906875 8.04125 -16.81375 8.0825 -15.6875 8.125 C-11.91107771 8.32074666 -11.91107771 8.32074666 -9 6 C-9 6.66 -9 7.32 -9 8 C-5.87501834 8.3373846 -5.87501834 8.3373846 -3.8125 6 C-3.214375 5.34 -2.61625 4.68 -2 4 C-2 4.66 -2 5.32 -2 6 C-1.34 6 -0.68 6 0 6 C0 4.02 0 2.04 0 0 Z " fill="#34729F" transform="translate(313,339)"/>
<path d="M0 0 C0.33 0.66 0.66 1.32 1 2 C1.99 2 2.98 2 4 2 C4.33 2.66 4.66 3.32 5 4 C5.66 3.34 6.32 2.68 7 2 C7.32600627 6.6637008 7.53634003 10.68596692 5.75 15.0625 C1.29739699 18.19956121 -3.67492445 17.90789964 -9 18 C-9 17.34 -9 16.68 -9 16 C-8.34 15.67 -7.68 15.34 -7 15 C-7 14.34 -7 13.68 -7 13 C-3.535 12.505 -3.535 12.505 0 12 C0 8.04 0 4.08 0 0 Z " fill="#054C82" transform="translate(402,336)"/>
<path d="M0 0 C0.66 0.66 1.32 1.32 2 2 C2.66 1.67 3.32 1.34 4 1 C4.66 2.98 5.32 4.96 6 7 C6.99 7 7.98 7 9 7 C9.33 6.34 9.66 5.68 10 5 C9.34 5 8.68 5 8 5 C8 3.35 8 1.7 8 0 C8.391875 0.61875 8.78375 1.2375 9.1875 1.875 C11.27717491 4.32496368 12.97463327 5.01879998 16 6 C16 6.66 16 7.32 16 8 C16.66 8.33 17.32 8.66 18 9 C16.68 9 15.36 9 14 9 C14 9.66 14 10.32 14 11 C17.63 10.67 21.26 10.34 25 10 C24 12 24 12 21.3125 13.125 C14.21930687 14.99867366 10.16518028 13.50507712 4 10 C4 9.34 4 8.68 4 8 C3.34 8 2.68 8 2 8 C0.23537317 4.91190305 0 3.76687864 0 0 Z " fill="#286490" transform="translate(379,343)"/>
<path d="M0 0 C11.22 0 22.44 0 34 0 C34 2.97 34 5.94 34 9 C33.67 9 33.34 9 33 9 C33 6.36 33 3.72 33 1 C22.44 1 11.88 1 1 1 C1.33 2.98 1.66 4.96 2 7 C2.84498047 6.72929687 2.84498047 6.72929687 3.70703125 6.453125 C6.32616391 5.93554512 8.08851375 6.18294846 10.6875 6.75 C11.86892578 6.98976563 11.86892578 6.98976563 13.07421875 7.234375 C14.02748047 7.61335938 14.02748047 7.61335938 15 8 C16.1802738 11.5408214 16.0238386 14.62355373 15.87890625 18.29296875 C15.85529526 18.99899734 15.83168427 19.70502594 15.80735779 20.43244934 C15.73087055 22.68434507 15.64678253 24.93588387 15.5625 27.1875 C15.50926432 28.71547741 15.45652401 30.24347216 15.40429688 31.77148438 C15.27527576 35.51454835 15.13943788 39.25731019 15 43 C15.66 43.33 16.32 43.66 17 44 C16.01 44 15.02 44 14 44 C14 32.45 14 20.9 14 9 C11.69 9.33 9.38 9.66 7 10 C4.65739357 9.7397104 2.3182429 9.42579972 0 9 C0 6.03 0 3.06 0 0 Z " fill="#6E9DC1" transform="translate(45,309)"/>
<path d="M0 0 C0.33 0 0.66 0 1 0 C1 7.92 1 15.84 1 24 C-0.98 24 -2.96 24 -5 24 C-5 17.73 -5 11.46 -5 5 C-3.68 4.34 -2.36 3.68 -1 3 C-0.67 2.01 -0.34 1.02 0 0 Z " fill="#074E81" transform="translate(108,330)"/>
<path d="M0 0 C1.98 0 3.96 0 6 0 C6.33 4.62 6.66 9.24 7 14 C7.66 14 8.32 14 9 14 C9 13.34 9 12.68 9 12 C11.97 12 14.94 12 18 12 C18.33 13.32 18.66 14.64 19 16 C16 18 16 18 12.875 17.6875 C10 17 10 17 9 16 C7.68 16 6.36 16 5 16 C4.67 13.69 4.34 11.38 4 9 C2.68 9.99 1.36 10.98 0 12 C0 8.04 0 4.08 0 0 Z " fill="#0D4E7D" transform="translate(349,311)"/>
<path d="M0 0 C2.64 0 5.28 0 8 0 C8 4.95 8 9.9 8 15 C8.66 15.33 9.32 15.66 10 16 C9.01 16.33 8.02 16.66 7 17 C6.67 12.05 6.34 7.1 6 2 C4.35 2.33 2.7 2.66 1 3 C1.33 16.86 1.66 30.72 2 45 C3.65 45 5.3 45 7 45 C7 38.4 7 31.8 7 25 C7.33 25 7.66 25 8 25 C8 31.93 8 38.86 8 46 C5.36 46 2.72 46 0 46 C0 30.82 0 15.64 0 0 Z " fill="#2D6088" transform="translate(82,309)"/>
<path d="M0 0 C1.485 0.99 1.485 0.99 3 2 C4.32488113 2.36548445 5.66018514 2.6937566 7 3 C8.3921875 3.495 8.3921875 3.495 9.8125 4 C13.05941926 5.11943404 13.05941926 5.11943404 16.8125 5.5 C18.3903125 5.7475 18.3903125 5.7475 20 6 C20.33 6.66 20.66 7.32 21 8 C19.02 8.66 17.04 9.32 15 10 C15 10.66 15 11.32 15 12 C10.13658831 12.34738655 6.97769572 11.91697686 3 9 C1.61958106 6.08405888 0.74867925 3.1326316 0 0 Z " fill="#145B8D" transform="translate(284,324)"/>
<path d="M0 0 C3.18985894 2.82757579 4.07910548 5.2596362 4.92578125 9.37109375 C5.06453475 14.28588891 2.99542622 18.58862386 1 23 C0.34 21.68 -0.32 20.36 -1 19 C-1.66 19 -2.32 19 -3 19 C-4.32 18.67 -5.64 18.34 -7 18 C-6.34 15.03 -5.68 12.06 -5 9 C-4.34 9.66 -3.68 10.32 -3 11 C-0.89179203 10.6814823 -0.89179203 10.6814823 1 10 C0.835 9.195625 0.67 8.39125 0.5 7.5625 C-0.07629353 4.60899565 0 3.1957862 0 0 Z " fill="#36729D" transform="translate(440,328)"/>
<path d="M0 0 C0.99 0.66 1.98 1.32 3 2 C2.34 2 1.68 2 1 2 C1.2475 2.5775 1.495 3.155 1.75 3.75 C2 6 2 6 0.40625 8.15625 C-2.76672051 10.58748714 -4.34726414 10.2590525 -8.25 9.75 C-9.32765625 9.62109375 -10.4053125 9.4921875 -11.515625 9.359375 C-12.33546875 9.24078125 -13.1553125 9.1221875 -14 9 C-14 7.35 -14 5.7 -14 4 C-11.525 4.495 -11.525 4.495 -9 5 C-9 4.34 -9 3.68 -9 3 C-7.56879256 2.44191911 -6.12969645 1.90403538 -4.6875 1.375 C-3.88699219 1.07335937 -3.08648437 0.77171875 -2.26171875 0.4609375 C-1.51535156 0.30882812 -0.76898438 0.15671875 0 0 Z " fill="#1E5E8A" transform="translate(438,345)"/>
<path d="M0 0 C0.33 0.99 0.66 1.98 1 3 C2.546875 2.7215625 2.546875 2.7215625 4.125 2.4375 C7.76148442 2.02692918 10.45437009 2.221691 14 3 C14 3.33 14 3.66 14 4 C12.865625 4.268125 11.73125 4.53625 10.5625 4.8125 C8.7990625 5.4003125 8.7990625 5.4003125 7 6 C6.67 6.99 6.34 7.98 6 9 C10.29 9 14.58 9 19 9 C19 9.66 19 10.32 19 11 C16.54137599 11.05383848 14.0839245 11.09359038 11.625 11.125 C10.57699219 11.15013672 10.57699219 11.15013672 9.5078125 11.17578125 C7.67102514 11.19344267 5.83398037 11.10303261 4 11 C3.34 10.34 2.68 9.68 2 9 C0.68 9.33 -0.64 9.66 -2 10 C-2.33 13.3 -2.66 16.6 -3 20 C-3.33 20 -3.66 20 -4 20 C-4.054138 17.75026553 -4.09285491 15.50015617 -4.125 13.25 C-4.14820312 11.99703125 -4.17140625 10.7440625 -4.1953125 9.453125 C-4.01537302 6.27179508 -3.68998582 4.63478104 -2 2 C-1.34 2 -0.68 2 0 2 C0 1.34 0 0.68 0 0 Z " fill="#5083AB" transform="translate(117,326)"/>
<path d="M0 0 C10.56 0 21.12 0 32 0 C32 2.31 32 4.62 32 7 C29.69 7 27.38 7 25 7 C25 6.67 25 6.34 25 6 C26.65 6 28.3 6 30 6 C30 4.68 30 3.36 30 2 C29.13375 2.5259375 29.13375 2.5259375 28.25 3.0625 C25.64198224 4.14917407 24.60582371 3.93065133 22 3 C22 4.32 22 5.64 22 7 C20 7 20 7 18.375 5.625 C17 4 17 4 17 2 C16.236875 2.185625 15.47375 2.37125 14.6875 2.5625 C9.69730678 3.15455682 4.97396797 2.57528099 0 2 C0 1.34 0 0.68 0 0 Z " fill="#064475" transform="translate(46,310)"/>
<path d="M0 0 C5.34965035 -0.35664336 5.34965035 -0.35664336 7.9375 1.0625 C9.29144819 3.53146435 8.92204753 5.18146538 8.39453125 7.8828125 C7.92652533 10.39428981 7.67882324 12.89460133 7.4375 15.4375 C7.35371094 16.30246094 7.26992187 17.16742188 7.18359375 18.05859375 C7.12300781 18.69925781 7.06242188 19.33992188 7 20 C6.67 20 6.34 20 6 20 C5.65820312 17.02148438 5.65820312 17.02148438 5.31640625 14.04296875 C5.02829265 11.80603607 5.02829265 11.80603607 4 9 C2.68 9.33 1.36 9.66 0 10 C0 6.7 0 3.4 0 0 Z " fill="#044F84" transform="translate(215,325)"/>
<path d="M0 0 C2.97 0 5.94 0 9 0 C8.67 1.65 8.34 3.3 8 5 C7.34 5 6.68 5 6 5 C5.690625 5.928125 5.690625 5.928125 5.375 6.875 C4 9 4 9 1.4375 10.3125 C-3.9187781 11.38375562 -8.84052859 10.7198238 -14 9 C-14 8.01 -14 7.02 -14 6 C-11.36 6.66 -8.72 7.32 -6 8 C-6.33 7.01 -6.66 6.02 -7 5 C-6.195625 5.4640625 -6.195625 5.4640625 -5.375 5.9375 C-2.6015043 7.17827439 0.00042837 7.5909675 3 8 C2.814375 7.195625 2.62875 6.39125 2.4375 5.5625 C2.293125 4.716875 2.14875 3.87125 2 3 C2.33 2.67 2.66 2.34 3 2 C2.01 1.34 1.02 0.68 0 0 Z " fill="#417399" transform="translate(134,346)"/>
<path d="M0 0 C0.5534764 2.07553648 1 3.84365964 1 6 C1.99 6.33 2.98 6.66 4 7 C4.12375 8.03125 4.2475 9.0625 4.375 10.125 C4.93889814 13.62116846 5.78682059 16.68397627 7 20 C6.34 20.33 5.68 20.66 5 21 C4.34 20.34 3.68 19.68 3 19 C2.31679688 18.7834375 1.63359375 18.566875 0.9296875 18.34375 C-1 17 -1 17 -1.6796875 13.59375 C-1.76473922 12.2302646 -1.82906256 10.86536295 -1.875 9.5 C-1.92140625 8.81035156 -1.9678125 8.12070312 -2.015625 7.41015625 C-2.10690787 5.60907504 -2.06200665 3.80232662 -2 2 C-1.34 1.34 -0.68 0.68 0 0 Z " fill="#045189" transform="translate(415,331)"/>
<path d="M0 0 C0.66 0 1.32 0 2 0 C1.67 3.3 1.34 6.6 1 10 C0.15695313 10.06058594 -0.68609375 10.12117188 -1.5546875 10.18359375 C-2.65039062 10.26738281 -3.74609375 10.35117187 -4.875 10.4375 C-6.51082031 10.55931641 -6.51082031 10.55931641 -8.1796875 10.68359375 C-10.94728971 10.83001703 -10.94728971 10.83001703 -13 12 C-14.99960012 12.039992 -17.00047242 12.04346799 -19 12 C-19.33 11.01 -19.66 10.02 -20 9 C-17.36 9 -14.72 9 -12 9 C-12 7.68 -12 6.36 -12 5 C-13.65 4.67 -15.3 4.34 -17 4 C-16.67 3.34 -16.34 2.68 -16 2 C-13.69 2 -11.38 2 -9 2 C-9.33 3.65 -9.66 5.3 -10 7 C-6.7 7.33 -3.4 7.66 0 8 C0 5.36 0 2.72 0 0 Z " fill="#386F98" transform="translate(221,345)"/>
<path d="M0 0 C0.82514784 2.83384108 1.07936233 5.16935251 0.87890625 8.109375 C0.83056641 8.86347656 0.78222656 9.61757813 0.73242188 10.39453125 C0.64831055 11.56048828 0.64831055 11.56048828 0.5625 12.75 C0.51029297 13.54277344 0.45808594 14.33554687 0.40429688 15.15234375 C0.27510676 17.10193997 0.13830035 19.05102886 0 21 C-1.98 20.34 -3.96 19.68 -6 19 C-6 15.04 -6 11.08 -6 7 C-4.68 6.67 -3.36 6.34 -2 6 C-0.6954344 3.00384054 -0.6954344 3.00384054 0 0 Z " fill="#034D7F" transform="translate(180,333)"/>
<path d="M0 0 C0.33 0.66 0.66 1.32 1 2 C2.32 1.67 3.64 1.34 5 1 C5.96661363 4.12180401 5.98988909 6.52083795 5.5625 9.75 C5.46066406 10.54921875 5.35882813 11.3484375 5.25390625 12.171875 C5.12822266 13.07679688 5.12822266 13.07679688 5 14 C4.01 13.67 3.02 13.34 2 13 C0.75923698 12.88457803 0.75923698 12.88457803 -0.5625 14.5 C-1.036875 14.995 -1.51125 15.49 -2 16 C-2.02715383 14.25008666 -2.04646551 12.50005055 -2.0625 10.75 C-2.07410156 9.77546875 -2.08570313 8.8009375 -2.09765625 7.796875 C-1.89146165 1.89146165 -1.89146165 1.89146165 0 0 Z " fill="#044E84" transform="translate(318,329)"/>
<path d="M0 0 C0.99 0 1.98 0 3 0 C3 0.66 3 1.32 3 2 C4.918125 1.938125 4.918125 1.938125 6.875 1.875 C9.0546875 1.8046875 9.0546875 1.8046875 11 2 C13 4 13 4 13 7 C11.25181409 7.22304441 9.50129677 7.4278645 7.75 7.625 C6.77546875 7.74101562 5.8009375 7.85703125 4.796875 7.9765625 C1.86570607 8.00112537 0.45471036 7.5312717 -2 6 C-1.34 4.02 -0.68 2.04 0 0 Z " fill="#064C7F" transform="translate(290,347)"/>
<path d="M0 0 C0 0.66 0 1.32 0 2 C-0.99 2.33 -1.98 2.66 -3 3 C-2.01 3.33 -1.02 3.66 0 4 C0.33 4.99 0.66 5.98 1 7 C-2.25558265 7 -5.442101 6.75706131 -8.6875 6.5 C-9.86699219 6.4071875 -11.04648438 6.314375 -12.26171875 6.21875 C-13.16535156 6.1465625 -14.06898437 6.074375 -15 6 C-14.67 4.35 -14.34 2.7 -14 1 C-9.32798795 -0.20568053 -4.78503708 -0.09382426 0 0 Z " fill="#135382" transform="translate(133,323)"/>
<path d="M0 0 C2.31 0 4.62 0 7 0 C6.67 1.32 6.34 2.64 6 4 C6 3.01 6 2.02 6 1 C4.02 1.99 4.02 1.99 2 3 C1.67 11.25 1.34 19.5 1 28 C2.65 28 4.3 28 6 28 C6.33 23.05 6.66 18.1 7 13 C7.33 13 7.66 13 8 13 C8 18.94 8 24.88 8 31 C5.36 31 2.72 31 0 31 C0 20.77 0 10.54 0 0 Z " fill="#33638A" transform="translate(173,324)"/>
<path d="M0 0 C3.16115776 1.36983503 3.9927092 1.9890638 6 5 C6.125 7.6875 6.125 7.6875 6 10 C3.03 10 0.06 10 -3 10 C-3.66 8.68 -4.32 7.36 -5 6 C-4.34 6 -3.68 6 -3 6 C-3 5.34 -3 4.68 -3 4 C-2.34 4 -1.68 4 -1 4 C-0.67 2.68 -0.34 1.36 0 0 Z " fill="#3D7399" transform="translate(338,324)"/>
<path d="M0 0 C0.33 0 0.66 0 1 0 C1.33 6.27 1.66 12.54 2 19 C4.31 19 6.62 19 9 19 C9 20.65 9 22.3 9 24 C5.04 24 1.08 24 -3 24 C-2.34 23.67 -1.68 23.34 -1 23 C0.22017833 18.07324223 0.11800815 13.16343228 0.0625 8.125 C0.05798828 7.34125 0.05347656 6.5575 0.04882812 5.75 C0.03714093 3.83329986 0.01920908 1.91663952 0 0 Z " fill="#084A79" transform="translate(237,330)"/>
<path d="M0 0 C0.78503906 0.10699219 1.57007813 0.21398437 2.37890625 0.32421875 C3.55259766 0.47310547 3.55259766 0.47310547 4.75 0.625 C6.94140625 1.01171875 6.94140625 1.01171875 9.94140625 2.01171875 C7.94140625 4.01171875 7.94140625 4.01171875 5.99609375 4.20703125 C3.97786458 4.14192708 1.95963542 4.07682292 -0.05859375 4.01171875 C-0.38859375 5.66171875 -0.71859375 7.31171875 -1.05859375 9.01171875 C2.49779861 11.31291381 5.88858913 12.78644846 9.94140625 14.01171875 C9.94140625 14.34171875 9.94140625 14.67171875 9.94140625 15.01171875 C1.05135731 14.6724039 1.05135731 14.6724039 -2.68359375 12.44921875 C-4.75833017 8.77127691 -4.46459703 6.20708599 -4.05859375 2.01171875 C-2.05859375 0.01171875 -2.05859375 0.01171875 0 0 Z " fill="#527EA3" transform="translate(293.05859375,314.98828125)"/>
<path d="M0 0 C10.89 0 21.78 0 33 0 C33 0.33 33 0.66 33 1 C23.1 1.495 23.1 1.495 13 2 C13 2.33 13 2.66 13 3 C9.37 3 5.74 3 2 3 C2.33 3.99 2.66 4.98 3 6 C5.64 6.33 8.28 6.66 11 7 C11 7.33 11 7.66 11 8 C7.37 8 3.74 8 0 8 C0 5.36 0 2.72 0 0 Z " fill="#6E99BB" transform="translate(140,309)"/>
<path d="M0 0 C0.33 1.32 0.66 2.64 1 4 C1.99 4 2.98 4 4 4 C3.67 7.3 3.34 10.6 3 14 C-1 12 -1 12 -2 11 C-2.33 12.65 -2.66 14.3 -3 16 C-3.33 16 -3.66 16 -4 16 C-4.46450943 9.49686791 -3.32575612 5.5825192 0 0 Z " fill="#306E9C" transform="translate(382,327)"/>
<path d="M0 0 C0.33 0 0.66 0 1 0 C1 8.58 1 17.16 1 26 C-1.64 26 -4.28 26 -7 26 C-7.02505615 25.41508789 -7.0501123 24.83017578 -7.07592773 24.22753906 C-7.19222962 21.56815529 -7.31480067 18.90909597 -7.4375 16.25 C-7.47681641 15.32960938 -7.51613281 14.40921875 -7.55664062 13.4609375 C-7.59853516 12.57148438 -7.64042969 11.68203125 -7.68359375 10.765625 C-7.72025146 9.94868164 -7.75690918 9.13173828 -7.79467773 8.29003906 C-7.99393497 6.06764559 -8.27580155 4.11153949 -9 2 C-9.66 1.67 -10.32 1.34 -11 1 C-9.68 1 -8.36 1 -7 1 C-5.74751498 3.50497004 -5.88625594 5.20853274 -5.90234375 8.0078125 C-5.90556641 8.99394531 -5.90878906 9.98007812 -5.91210938 10.99609375 C-5.92048828 12.02863281 -5.92886719 13.06117188 -5.9375 14.125 C-5.94201172 15.16527344 -5.94652344 16.20554687 -5.95117188 17.27734375 C-5.96298048 19.85161962 -5.97944925 22.42578146 -6 25 C-4.02 25 -2.04 25 0 25 C0 16.75 0 8.5 0 0 Z " fill="#5D87A9" transform="translate(277,329)"/>
<path d="M0 0 C-1.28519565 2.86697492 -2.57129254 4.97607712 -5 7 C-5.66 7 -6.32 7 -7 7 C-7 7.66 -7 8.32 -7 9 C-12.41176471 13 -12.41176471 13 -15 13 C-15 13.66 -15 14.32 -15 15 C-16.65 15.66 -18.3 16.32 -20 17 C-20.33 15.68 -20.66 14.36 -21 13 C-19.35 13 -17.7 13 -16 13 C-15.7525 12.401875 -15.505 11.80375 -15.25 11.1875 C-13.80807503 8.66413131 -12.47450374 7.49969924 -10 6 C-9.01 6 -8.02 6 -7 6 C-7 5.34 -7 4.68 -7 4 C-2.52941176 0 -2.52941176 0 0 0 Z " fill="#43769A" transform="translate(297,260)"/>
<path d="M0 0 C2 1 2 1 3 2 C3.66 1.67 4.32 1.34 5 1 C5 2.32 5 3.64 5 5 C5.66 5 6.32 5 7 5 C6.814375 5.53625 6.62875 6.0725 6.4375 6.625 C5.88580676 9.61990614 6.39402556 12.03745829 7 15 C6.34 14.01 5.68 13.02 5 12 C4.34 12 3.68 12 3 12 C2.01 13.485 2.01 13.485 1 15 C0.63684334 13.0641649 0.28477269 11.12624752 -0.0625 9.1875 C-0.25972656 8.10855469 -0.45695312 7.02960938 -0.66015625 5.91796875 C-1 3 -1 3 0 0 Z " fill="#084B7D" transform="translate(435,327)"/>
<path d="M0 0 C1.98 0.99 3.96 1.98 6 3 C6 4.98 6 6.96 6 9 C4.68 9 3.36 9 2 9 C0.22590192 10.92022703 0.22590192 10.92022703 -1 13 C-1.99 12.34 -2.98 11.68 -4 11 C-3.67 10.34 -3.34 9.68 -3 9 C-2.34 9 -1.68 9 -1 9 C-1.20625 8.2575 -1.4125 7.515 -1.625 6.75 C-2.04408751 3.67669159 -1.61949011 2.57213134 0 0 Z " fill="#044E80" transform="translate(307,336)"/>
<path d="M0 0 C2.97 0 5.94 0 9 0 C9.66 1.98 10.32 3.96 11 6 C8.69 6 6.38 6 4 6 C4 10.95 4 15.9 4 21 C3.67 21 3.34 21 3 21 C2.67 15.39 2.34 9.78 2 4 C1.34 3.67 0.68 3.34 0 3 C0 2.01 0 1.02 0 0 Z " fill="#4C84AD" transform="translate(235,325)"/>
<path d="M0 0 C0.33 0 0.66 0 1 0 C1 2.31 1 4.62 1 7 C1.99 6.67 2.98 6.34 4 6 C3.67 4.68 3.34 3.36 3 2 C6.63 2 10.26 2 14 2 C13.01 2.495 13.01 2.495 12 3 C12.33 4.65 12.66 6.3 13 8 C8.71 8 4.42 8 0 8 C0 5.36 0 2.72 0 0 Z " fill="#30729D" transform="translate(139,310)"/>
<path d="M0 0 C0.99 0 1.98 0 3 0 C3 0.66 3 1.32 3 2 C2.34 2 1.68 2 1 2 C1 2.66 1 3.32 1 4 C-5.95124048 7.53078882 -11.20188548 9.13930822 -18.9375 7 C-19.948125 6.67 -20.95875 6.34 -22 6 C-22 5.67 -22 5.34 -22 5 C-16.72 5 -11.44 5 -6 5 C-6 4.01 -6 3.02 -6 2 C-4.02 2 -2.04 2 0 2 C0 1.34 0 0.68 0 0 Z " fill="#44769C" transform="translate(309,349)"/>
<path d="M0 0 C0.33 0 0.66 0 1 0 C0.67580986 8.23442944 -1.11003121 15.29789712 -4 23 C-4.33 23 -4.66 23 -5 23 C-5.18451025 11.47835991 -5.18451025 11.47835991 -4 6 C-3.34 6 -2.68 6 -2 6 C-2 5.34 -2 4.68 -2 4 C-1.34 4 -0.68 4 0 4 C0 2.68 0 1.36 0 0 Z " fill="#407398" transform="translate(320,212)"/>
<path d="M0 0 C0.66 1.98 1.32 3.96 2 6 C-1.19902639 6.08886184 -3.92677456 5.91058531 -7 5 C-7.66 6.32 -8.32 7.64 -9 9 C-9.99 8.67 -10.98 8.34 -12 8 C-12 7.34 -12 6.68 -12 6 C-11.34 6 -10.68 6 -10 6 C-10 4.68 -10 3.36 -10 2 C-6.49223216 0.39644899 -3.85645121 -0.22036864 0 0 Z " fill="#034F85" transform="translate(298,311)"/>
<path d="M0 0 C1.23556641 0.01740234 1.23556641 0.01740234 2.49609375 0.03515625 C3.32238281 0.04417969 4.14867188 0.05320312 5 0.0625 C5.63808594 0.07410156 6.27617188 0.08570313 6.93359375 0.09765625 C7.26359375 1.08765625 7.59359375 2.07765625 7.93359375 3.09765625 C5.95359375 3.09765625 3.97359375 3.09765625 1.93359375 3.09765625 C1.60359375 3.75765625 1.27359375 4.41765625 0.93359375 5.09765625 C0.27359375 4.76765625 -0.38640625 4.43765625 -1.06640625 4.09765625 C-1.06640625 4.75765625 -1.06640625 5.41765625 -1.06640625 6.09765625 C-0.07640625 6.75765625 0.91359375 7.41765625 1.93359375 8.09765625 C1.14984375 8.40703125 0.36609375 8.71640625 -0.44140625 9.03515625 C-2.98970753 10.02640663 -2.98970753 10.02640663 -5.06640625 11.09765625 C-4.75858129 9.45094213 -4.44501391 7.80530049 -4.12890625 6.16015625 C-3.95488281 5.24363281 -3.78085938 4.32710938 -3.6015625 3.3828125 C-2.84078868 0.13425277 -2.84078868 0.13425277 0 0 Z " fill="#477DA1" transform="translate(96.06640625,321.90234375)"/>
<path d="M0 0 C-0.75 6.625 -0.75 6.625 -3 10 C-3.66 10 -4.32 10 -5 10 C-5.66 6.7 -6.32 3.4 -7 0 C-3.86650268 -1.04449911 -3.01031744 -0.93423645 0 0 Z " fill="#12598C" transform="translate(109,326)"/>
<path d="M0 0 C3.3 0 6.6 0 10 0 C10 0.33 10 0.66 10 1 C8.02 1.33 6.04 1.66 4 2 C4 2.99 4 3.98 4 5 C3.34 5.66 2.68 6.32 2 7 C3.98 7 5.96 7 8 7 C8 7.33 8 7.66 8 8 C6.3603125 8.37125 6.3603125 8.37125 4.6875 8.75 C0.94091591 10.02002851 -0.10595266 10.65756352 -2 14 C-2.25 6.375 -2.25 6.375 0 3 C0 2.01 0 1.02 0 0 Z " fill="#538EB3" transform="translate(389,322)"/>
<path d="M0 0 C2.64 0.33 5.28 0.66 8 1 C8 1.99 8 2.98 8 4 C8.66 4 9.32 4 10 4 C10 4.66 10 5.32 10 6 C6.37 6 2.74 6 -1 6 C-0.67 4.02 -0.34 2.04 0 0 Z " fill="#125A88" transform="translate(421,324)"/>
<path d="M0 0 C1.65 0 3.3 0 5 0 C4.93967927 1.4386494 4.85079867 2.87611902 4.75 4.3125 C4.70359375 5.11300781 4.6571875 5.91351563 4.609375 6.73828125 C4 9 4 9 0 12 C0 8.04 0 4.08 0 0 Z " fill="#025187" transform="translate(349,311)"/>
<path d="M0 0 C1.3921875 0.2784375 1.3921875 0.2784375 2.8125 0.5625 C6.01343771 1.24123881 6.01343771 1.24123881 9 0 C9 1.32 9 2.64 9 4 C9.66 4.66 10.32 5.32 11 6 C9.37675914 6.22162329 7.751279 6.42689803 6.125 6.625 C4.76761719 6.79902344 4.76761719 6.79902344 3.3828125 6.9765625 C2.59648438 6.98429687 1.81015625 6.99203125 1 7 C0.34 6.34 -0.32 5.68 -1 5 C-0.625 2.375 -0.625 2.375 0 0 Z " fill="#176293" transform="translate(67,312)"/>
<path d="M0 0 C-0.33 0.66 -0.66 1.32 -1 2 C-3.21484375 2.5625 -3.21484375 2.5625 -5.9375 3 C-9.92315275 3.5548011 -9.92315275 3.5548011 -13 6 C-16.10551666 6 -17.35261084 5.4606285 -20 4 C-13.67546278 0.31068662 -7.12737257 -0.25454902 0 0 Z " fill="#3C6E91" transform="translate(254,129)"/>
<path d="M0 0 C0.33 0 0.66 0 1 0 C1 2.64 1 5.28 1 8 C-0.79008467 8.22151549 -2.58218162 8.42682213 -4.375 8.625 C-5.37273437 8.74101562 -6.37046875 8.85703125 -7.3984375 8.9765625 C-8.25695312 8.98429687 -9.11546875 8.99203125 -10 9 C-10.66 8.34 -11.32 7.68 -12 7 C-10.68 6.67 -9.36 6.34 -8 6 C-7.67 4.68 -7.34 3.36 -7 2 C-5.35 2 -3.7 2 -2 2 C-2 3.32 -2 4.64 -2 6 C-1.34 6.33 -0.68 6.66 0 7 C0 4.69 0 2.38 0 0 Z " fill="#3975A5" transform="translate(173,310)"/>
<path d="M0 0 C1 3 1 3 -0.1875 5.625 C-4.57001965 9.32579437 -9.42847291 8.90363711 -15 9 C-15 8.34 -15 7.68 -15 7 C-13.68 7 -12.36 7 -11 7 C-11 6.34 -11 5.68 -11 5 C-8.36 5.33 -5.72 5.66 -3 6 C-3.33 4.68 -3.66 3.36 -4 2 C-2.68 2 -1.36 2 0 2 C0 1.34 0 0.68 0 0 Z " fill="#185A8A" transform="translate(408,345)"/>
<path d="M0 0 C-0.33 0.99 -0.66 1.98 -1 3 C-2.8253125 2.9690625 -2.8253125 2.9690625 -4.6875 2.9375 C-7.91977322 2.93175884 -10.84934741 3.21233685 -14 4 C-14 5.32 -14 6.64 -14 8 C-14.99 8.33 -15.98 8.66 -17 9 C-17 7.68 -17 6.36 -17 5 C-16.34 4.67 -15.68 4.34 -15 4 C-15 3.34 -15 2.68 -15 2 C-10.13948404 -0.59227518 -5.34728867 -0.18689553 0 0 Z " fill="#3A6B92" transform="translate(302,309)"/>
<path d="M0 0 C6.625 -0.25 6.625 -0.25 10 2 C10 2.66 10 3.32 10 4 C6.52674819 5.1577506 3.63932552 5.06866652 0 5 C0 3.35 0 1.7 0 0 Z " fill="#024E82" transform="translate(424,349)"/>
<path d="M0 0 C0.33 0.66 0.66 1.32 1 2 C0.67 2.66 0.34 3.32 0 4 C3.0745356 3.2236068 3.0745356 3.2236068 5 1 C5.33 1.66 5.66 2.32 6 3 C8.32156597 3.40729228 10.6568787 3.74438677 13 4 C13 4.33 13 4.66 13 5 C11.88625 5.28875 10.7725 5.5775 9.625 5.875 C5.99708908 6.69241329 5.99708908 6.69241329 4 9 C3.67 7.68 3.34 6.36 3 5 C2.38125 5.185625 1.7625 5.37125 1.125 5.5625 C-1 6 -1 6 -3 5 C-3 4.34 -3 3.68 -3 3 C-2.34 3 -1.68 3 -1 3 C-0.67 2.01 -0.34 1.02 0 0 Z " fill="#4378A2" transform="translate(320,325)"/>
<path d="M0 0 C2.97 0 5.94 0 9 0 C9 3 9 3 8 5 C6.15234375 5.6328125 6.15234375 5.6328125 3.9375 6.125 C3.20402344 6.29257812 2.47054688 6.46015625 1.71484375 6.6328125 C1.14894531 6.75398438 0.58304687 6.87515625 0 7 C0.33 6.01 0.66 5.02 1 4 C1.66 4 2.32 4 3 4 C3 3.01 3 2.02 3 1 C2.01 0.67 1.02 0.34 0 0 Z " fill="#0A4C7A" transform="translate(390,323)"/>
<path d="M0 0 C1.65 0 3.3 0 5 0 C4.01 1.485 4.01 1.485 3 3 C3 4.32 3 5.64 3 7 C1.02 7 -0.96 7 -3 7 C-3.33 5.68 -3.66 4.36 -4 3 C-2.68 2.67 -1.36 2.34 0 2 C0 1.34 0 0.68 0 0 Z " fill="#054E82" transform="translate(134,347)"/>
<path d="M0 0 C3.125 0.375 3.125 0.375 6 1 C5.54625 1.5775 5.0925 2.155 4.625 2.75 C3.15886484 4.7800333 2.05142216 6.73539843 1 9 C1 8.34 1 7.68 1 7 C0.01 7 -0.98 7 -2 7 C-2.125 4.625 -2.125 4.625 -2 2 C-1.34 1.34 -0.68 0.68 0 0 Z " fill="#18598A" transform="translate(385,324)"/>
<path d="M0 0 C1.32 0.66 2.64 1.32 4 2 C4 2.66 4 3.32 4 4 C4.66 4.33 5.32 4.66 6 5 C5.01 5.66 4.02 6.32 3 7 C2.67 7.99 2.34 8.98 2 10 C0.02 9.34 -1.96 8.68 -4 8 C-3.01 7.67 -2.02 7.34 -1 7 C-0.67 4.69 -0.34 2.38 0 0 Z " fill="#37709B" transform="translate(325,346)"/>
<path d="M0 0 C1.32 0.66 2.64 1.32 4 2 C4 2.99 4 3.98 4 5 C1.36 5 -1.28 5 -4 5 C-4 4.34 -4 3.68 -4 3 C-4.99 2.67 -5.98 2.34 -7 2 C-7 1.67 -7 1.34 -7 1 C-4.69 1 -2.38 1 0 1 C0 0.67 0 0.34 0 0 Z " fill="#04538B" transform="translate(299,349)"/>
<path d="M0 0 C2.97 0 5.94 0 9 0 C9.33 1.32 9.66 2.64 10 4 C10.66 4.33 11.32 4.66 12 5 C10.68 5.33 9.36 5.66 8 6 C8.33 4.68 8.66 3.36 9 2 C6.69 2 4.38 2 2 2 C2.33 3.32 2.66 4.64 3 6 C2.01 6 1.02 6 0 6 C0 4.02 0 2.04 0 0 Z " fill="#5A84A3" transform="translate(281,342)"/>
<path d="M0 0 C8.19256018 -0.4726477 8.19256018 -0.4726477 11.5625 1.5 C12.036875 1.995 12.51125 2.49 13 3 C9.62694576 4.12435141 7.4321129 3.75339064 4 3 C2.3337447 2.9629721 0.66598681 2.95240038 -1 3 C-0.67 2.01 -0.34 1.02 0 0 Z " fill="#5A8DAD" transform="translate(262,322)"/>
<path d="M0 0 C2.64 0 5.28 0 8 0 C8 1.65 8 3.3 8 5 C7.34 5 6.68 5 6 5 C5.67 4.34 5.34 3.68 5 3 C3.02 3.66 1.04 4.32 -1 5 C-0.67 3.35 -0.34 1.7 0 0 Z " fill="#3D7093" transform="translate(336,344)"/>
<path d="M0 0 C0.144375 0.598125 0.28875 1.19625 0.4375 1.8125 C0.8872439 3.56150404 1.42892341 5.28677023 2 7 C1.625 9.4375 1.625 9.4375 1 12 C0.814375 12.763125 0.62875 13.52625 0.4375 14.3125 C0.293125 14.869375 0.14875 15.42625 0 16 C0.66 16.33 1.32 16.66 2 17 C1.01 17 0.02 17 -1 17 C-1.22126178 14.54220024 -1.42750395 12.08472352 -1.625 9.625 C-1.68945312 8.92632812 -1.75390625 8.22765625 -1.8203125 7.5078125 C-1.96119739 5.67630889 -1.98761659 3.83687252 -2 2 C-1.34 1.34 -0.68 0.68 0 0 Z " fill="#074C7E" transform="translate(415,331)"/>
<path d="M0 0 C2.42776667 1.29480889 3.76967674 2.35838519 4.7109375 4.98046875 C5.19782198 6.9738726 5.60391861 8.98658625 6 11 C4.68 11 3.36 11 2 11 C1.664061 9.5422647 1.33133376 8.08378894 1 6.625 C0.814375 5.81289063 0.62875 5.00078125 0.4375 4.1640625 C0 2 0 2 0 0 Z " fill="#03528B" transform="translate(136,329)"/>
<path d="M0 0 C0.66 0.33 1.32 0.66 2 1 C1.67 1.66 1.34 2.32 1 3 C0.9310528 4.37342831 0.91532292 5.75002102 0.9375 7.125 C0.958125 8.40375 0.97875 9.6825 1 11 C1.66 10.01 2.32 9.02 3 8 C3.66 8.33 4.32 8.66 5 9 C4.67 9.99 4.34 10.98 4 12 C3.34 12 2.68 12 2 12 C2.33 12.99 2.66 13.98 3 15 C1.68 14.67 0.36 14.34 -1 14 C-1.02685938 11.85423363 -1.04633088 9.70837355 -1.0625 7.5625 C-1.07410156 6.36753906 -1.08570313 5.17257812 -1.09765625 3.94140625 C-1 1 -1 1 0 0 Z " fill="#396D97" transform="translate(316,332)"/>
<path d="M0 0 C1.9609375 0.0859375 1.9609375 0.0859375 4.375 0.375 C5.56222656 0.51035156 5.56222656 0.51035156 6.7734375 0.6484375 C9 1 9 1 12 2 C11.34 2.66 10.68 3.32 10 4 C7.99207942 4 5.98363399 3.99588753 3.9765625 3.9375 C1.57665626 4.01338636 -0.01031222 4.67354148 -2 6 C-1.125 1.125 -1.125 1.125 0 0 Z " fill="#3A729D" transform="translate(291,315)"/>
<path d="M0 0 C-1 2 -1 2 -3.6875 3.125 C-6.9579435 3.98889074 -9.63706182 4.16013991 -13 4 C-13.33 3.01 -13.66 2.02 -14 1 C-9.27616037 0.34843591 -4.78025483 -0.11950637 0 0 Z " fill="#5484A1" transform="translate(404,353)"/>
<path d="M0 0 C0.33 0 0.66 0 1 0 C1 4.29 1 8.58 1 13 C1.99 12.34 2.98 11.68 4 11 C4.99 11.33 5.98 11.66 7 12 C6.34 12 5.68 12 5 12 C4.67 13.98 4.34 15.96 4 18 C3.34 18 2.68 18 2 18 C2 16.68 2 15.36 2 14 C1.34 14 0.68 14 0 14 C0 9.38 0 4.76 0 0 Z " fill="#07497C" transform="translate(88,313)"/>
<path d="M0 0 C-1.28519565 2.86697492 -2.57129254 4.97607712 -5 7 C-5.66 7 -6.32 7 -7 7 C-7 7.66 -7 8.32 -7 9 C-8.32 9 -9.64 9 -11 9 C-10.67 8.01 -10.34 7.02 -10 6 C-9.01 6 -8.02 6 -7 6 C-7 5.34 -7 4.68 -7 4 C-2.52941176 0 -2.52941176 0 0 0 Z " fill="#3B6C8F" transform="translate(297,260)"/>
<path d="M0 0 C1.65 0 3.3 0 5 0 C4.67 1.32 4.34 2.64 4 4 C3.34 4 2.68 4 2 4 C2 4.99 2 5.98 2 7 C1.34 7 0.68 7 0 7 C-0.33 7.66 -0.66 8.32 -1 9 C-2.60031344 5.79937313 -1.03173691 3.27728194 0 0 Z " fill="#306994" transform="translate(306,243)"/>
<path d="M0 0 C0.66 0.66 1.32 1.32 2 2 C2.66 1.67 3.32 1.34 4 1 C4.73080266 2.97746603 5.39421747 4.98072489 6 7 C5.67 7.66 5.34 8.32 5 9 C5.66 9 6.32 9 7 9 C6.67 9.66 6.34 10.32 6 11 C5.34 10.67 4.68 10.34 4 10 C4 9.34 4 8.68 4 8 C3.34 8 2.68 8 2 8 C0.23537317 4.91190305 0 3.76687864 0 0 Z " fill="#43779E" transform="translate(379,343)"/>
<path d="M0 0 C0.99 0 1.98 0 3 0 C3 7.92 3 15.84 3 24 C2.67 24 2.34 24 2 24 C1.97494385 23.37955811 1.9498877 22.75911621 1.92407227 22.11987305 C1.80803279 19.30887603 1.68534241 16.49820759 1.5625 13.6875 C1.52318359 12.71103516 1.48386719 11.73457031 1.44335938 10.72851562 C1.40146484 9.79072266 1.35957031 8.85292969 1.31640625 7.88671875 C1.27974854 7.02264404 1.24309082 6.15856934 1.20532227 5.26831055 C1.07252646 2.8352174 1.07252646 2.8352174 0 0 Z " fill="#094573" transform="translate(366,330)"/>
<path d="M0 0 C1.98 0.66 3.96 1.32 6 2 C6 2.66 6 3.32 6 4 C6.66 4 7.32 4 8 4 C8.33 5.65 8.66 7.3 9 9 C7.68 8.67 6.36 8.34 5 8 C5 6.68 5 5.36 5 4 C4.360625 3.896875 3.72125 3.79375 3.0625 3.6875 C2.381875 3.460625 1.70125 3.23375 1 3 C0.67 2.01 0.34 1.02 0 0 Z " fill="#4B7A9D" transform="translate(304,330)"/>
<path d="M0 0 C1.670625 0.061875 1.670625 0.061875 3.375 0.125 C3.705 0.785 4.035 1.445 4.375 2.125 C2.395 2.785 0.415 3.445 -1.625 4.125 C-1.625 4.785 -1.625 5.445 -1.625 6.125 C-3.275 5.795 -4.925 5.465 -6.625 5.125 C-5.18396028 0.80188085 -4.63302201 0.15975938 0 0 Z " fill="#094C7E" transform="translate(300.625,329.875)"/>
<path d="M0 0 C-0.375 2.9375 -0.375 2.9375 -1 6 C-1.99 6.495 -1.99 6.495 -3 7 C-3.33 5.68 -3.66 4.36 -4 3 C-4.99 3 -5.98 3 -7 3 C-7 2.34 -7 1.68 -7 1 C-4.53721199 -0.231394 -2.7204945 -0.07159196 0 0 Z " fill="#376D93" transform="translate(191,322)"/>
<path d="M0 0 C1.7492214 -0.08142927 3.49954542 -0.13938541 5.25 -0.1875 C6.22453125 -0.22230469 7.1990625 -0.25710938 8.203125 -0.29296875 C11 0 11 0 15 3 C11.7 3.66 8.4 4.32 5 5 C5.33 4.34 5.66 3.68 6 3 C7.32 3 8.64 3 10 3 C10 2.34 10 1.68 10 1 C6.37 1.33 2.74 1.66 -1 2 C-0.67 1.34 -0.34 0.68 0 0 Z " fill="#76A2C0" transform="translate(123,322)"/>
<path d="M0 0 C0.91007812 0.00902344 1.82015625 0.01804687 2.7578125 0.02734375 C3.45648438 0.03894531 4.15515625 0.05054688 4.875 0.0625 C4.875 0.7225 4.875 1.3825 4.875 2.0625 C1.35440432 3.23603189 -1.431493 3.26396402 -5.125 3.0625 C-5.785 2.4025 -6.445 1.7425 -7.125 1.0625 C-4.60024538 -0.19987731 -2.81299534 -0.03606404 0 0 Z " fill="#5988A6" transform="translate(428.125,321.9375)"/>
<path d="M0 0 C0.66 0 1.32 0 2 0 C1.67 3.3 1.34 6.6 1 10 C-6.75 11.125 -6.75 11.125 -9 10 C-9 9.34 -9 8.68 -9 8 C-6.03 8.33 -3.06 8.66 0 9 C0 6.03 0 3.06 0 0 Z " fill="#5C82A2" transform="translate(221,345)"/>
<path d="M0 0 C5.28 0 10.56 0 16 0 C15.01 0.495 15.01 0.495 14 1 C14 1.66 14 2.32 14 3 C8.80790596 3.21192221 4.873261 2.5912689 0 1 C0 0.67 0 0.34 0 0 Z " fill="#658EAC" transform="translate(287,354)"/>
<path d="M0 0 C4.32591633 0.89501717 6.4899806 2.23497089 9 6 C8.67 6.99 8.34 7.98 8 9 C6.66368764 7.6905332 5.33102075 6.37734515 4 5.0625 C3.2575 4.33160156 2.515 3.60070312 1.75 2.84765625 C0 1 0 1 0 0 Z " fill="#46769D" transform="translate(198,256)"/>
<path d="M0 0 C1.32 0.66 2.64 1.32 4 2 C-0.10457614 4.98514628 -2.97745369 5.2954439 -8 5 C-8 4.34 -8 3.68 -8 3 C-5.36 2.34 -2.72 1.68 0 1 C0 0.67 0 0.34 0 0 Z " fill="#236999" transform="translate(103,323)"/>
<path d="M0 0 C0.33 1.32 0.66 2.64 1 4 C1.804375 3.690625 1.804375 3.690625 2.625 3.375 C5.83267308 2.8685253 8.01317066 3.84599775 11 5 C8.08291076 6.98362069 6.87619096 6.9876191 3.25 6.625 C2.1775 6.41875 1.105 6.2125 0 6 C0 4.02 0 2.04 0 0 Z " fill="#2D6D97" transform="translate(46,312)"/>
<path d="M0 0 C1.32 0 2.64 0 4 0 C4 0.66 4 1.32 4 2 C-1.22771463 5.04157942 -4.92671312 6.50610724 -11 6 C-11 5.67 -11 5.34 -11 5 C-9.02 5 -7.04 5 -5 5 C-5 4.34 -5 3.68 -5 3 C-3.35 3 -1.7 3 0 3 C0 2.01 0 1.02 0 0 Z " fill="#82A7C0" transform="translate(338,351)"/>
<path d="M0 0 C2 1.5 2 1.5 4 4 C4.35800135 6.75871627 4.18660165 9.20097524 4 12 C3.525625 11.360625 3.05125 10.72125 2.5625 10.0625 C1.16261274 8.11706694 1.16261274 8.11706694 0 7 C-0.04092937 4.66702567 -0.04241723 2.33294775 0 0 Z " fill="#5683A9" transform="translate(140,330)"/>
<path d="M0 0 C-0.99 1.485 -0.99 1.485 -2 3 C-4.1640625 3.29296875 -4.1640625 3.29296875 -6.625 3.1875 C-7.44226563 3.16042969 -8.25953125 3.13335937 -9.1015625 3.10546875 C-9.72804687 3.07066406 -10.35453125 3.03585938 -11 3 C-11 2.34 -11 1.68 -11 1 C-7.26562152 0.12132271 -3.83225427 -0.08912219 0 0 Z " fill="#2F618A" transform="translate(217,138)"/>
<path d="M0 0 C1.48828125 1.14453125 1.48828125 1.14453125 3 3 C3.29296875 5.69921875 3.29296875 5.69921875 3.1875 8.6875 C3.16042969 9.68136719 3.13335937 10.67523438 3.10546875 11.69921875 C3.07066406 12.45847656 3.03585937 13.21773438 3 14 C0.50148149 9.23656431 0 5.30241473 0 0 Z " fill="#3E6C93" transform="translate(440,328)"/>
<path d="M0 0 C0.99 0 1.98 0 3 0 C2.67 1.65 2.34 3.3 2 5 C0.02 5.33 -1.96 5.66 -4 6 C-4 5.34 -4 4.68 -4 4 C-3.34 4 -2.68 4 -2 4 C-2 3.34 -2 2.68 -2 2 C-1.34 2 -0.68 2 0 2 C0 1.34 0 0.68 0 0 Z " fill="#4B799C" transform="translate(418,324)"/>
<path d="M0 0 C0.99 0.99 1.98 1.98 3 3 C2.01 3.495 2.01 3.495 1 4 C1.33 5.32 1.66 6.64 2 8 C1.01 8.495 1.01 8.495 0 9 C-0.99 8.01 -1.98 7.02 -3 6 C-2.34 5.34 -1.68 4.68 -1 4 C-0.3574765 1.93125966 -0.3574765 1.93125966 0 0 Z " fill="#08497A" transform="translate(323,345)"/>
<path d="M0 0 C1.98 0 3.96 0 6 0 C5.49396008 2.16874252 5.00016187 3.99967627 4 6 C3.34 6 2.68 6 2 6 C0 3 0 3 0 0 Z " fill="#2C6491" transform="translate(317,347)"/>
<path d="M0 0 C0.33 0 0.66 0 1 0 C1 4.29 1 8.58 1 13 C-0.98 13.33 -2.96 13.66 -5 14 C-4.01 13.67 -3.02 13.34 -2 13 C-1.34 8.71 -0.68 4.42 0 0 Z " fill="#688FAF" transform="translate(401,335)"/>
<path d="M0 0 C0.66 0.33 1.32 0.66 2 1 C1.67 4.63 1.34 8.26 1 12 C0.01 11.67 -0.98 11.34 -2 11 C-2 10.01 -2 9.02 -2 8 C-1.34 8 -0.68 8 0 8 C-0.185625 7.05125 -0.37125 6.1025 -0.5625 5.125 C-1 2 -1 2 0 0 Z " fill="#074876" transform="translate(322,331)"/>
<path d="M0 0 C0.66 0.33 1.32 0.66 2 1 C2 1.66 2 2.32 2 3 C2.66 3 3.32 3 4 3 C4 4.65 4 6.3 4 8 C2.0625 7.1875 2.0625 7.1875 0 6 C-1 3 -1 3 0 0 Z " fill="#02548C" transform="translate(435,327)"/>
<path d="M0 0 C8.19256018 -0.63019694 8.19256018 -0.63019694 11.5625 2 C12.036875 2.66 12.51125 3.32 13 4 C11.35 4 9.7 4 8 4 C7.67 3.01 7.34 2.02 7 1 C4.69 1 2.38 1 0 1 C0 0.67 0 0.34 0 0 Z " fill="#81A5C3" transform="translate(360,322)"/>
<path d="M0 0 C5.75 -0.125 5.75 -0.125 8 1 C8 2.32 8 3.64 8 5 C7.34 5 6.68 5 6 5 C5.67 4.34 5.34 3.68 5 3 C2.47266765 2.34444881 2.47266765 2.34444881 0 2 C0 1.34 0 0.68 0 0 Z " fill="#2B5F8C" transform="translate(269,325)"/>
<path d="M0 0 C0.66 0 1.32 0 2 0 C1.34 1.98 0.68 3.96 0 6 C-0.99 5.67 -1.98 5.34 -3 5 C-3 4.34 -3 3.68 -3 3 C-3.66 3 -4.32 3 -5 3 C-4.67 2.34 -4.34 1.68 -4 1 C-2.02 1.495 -2.02 1.495 0 2 C0 1.34 0 0.68 0 0 Z " fill="#27628C" transform="translate(288,348)"/>
<path d="M0 0 C0.33 0.99 0.66 1.98 1 3 C0.01 3.33 -0.98 3.66 -2 4 C-2.66 3.67 -3.32 3.34 -4 3 C-4 3.99 -4 4.98 -4 6 C-4.99 5.67 -5.98 5.34 -7 5 C-6.67 3.68 -6.34 2.36 -6 1 C-3.03 1.495 -3.03 1.495 0 2 C0 1.34 0 0.68 0 0 Z " fill="#1C5687" transform="translate(121,342)"/>
<path d="M0 0 C0.33 0 0.66 0 1 0 C2 4 3 8 4 12 C3.01 12.495 3.01 12.495 2 13 C-0.20914 9.68629 -0.22481553 8.6553979 -0.125 4.8125 C-0.10695313 3.91144531 -0.08890625 3.01039063 -0.0703125 2.08203125 C-0.04710937 1.39496094 -0.02390625 0.70789063 0 0 Z " fill="#37698E" transform="translate(419,335)"/>
<path d="M0 0 C2.97 0 5.94 0 9 0 C9 0.33 9 0.66 9 1 C7.3603125 1.37125 7.3603125 1.37125 5.6875 1.75 C1.94091591 3.02002851 0.89404734 3.65756352 -1 7 C-0.67 4.69 -0.34 2.38 0 0 Z " fill="#608BAA" transform="translate(388,329)"/>
<path d="M0 0 C0.66 0.33 1.32 0.66 2 1 C2 1.66 2 2.32 2 3 C4.31 3 6.62 3 9 3 C9 3.33 9 3.66 9 4 C7.3603125 4.2165625 7.3603125 4.2165625 5.6875 4.4375 C2.06877013 4.88288104 2.06877013 4.88288104 -1 6 C-0.67 4.02 -0.34 2.04 0 0 Z " fill="#4A83A9" transform="translate(182,328)"/>
<path d="M0 0 C0.99 0 1.98 0 3 0 C3.66 1.65 4.32 3.3 5 5 C4.01 5.33 3.02 5.66 2 6 C0.68 4.68 -0.64 3.36 -2 2 C-1.34 2 -0.68 2 0 2 C0 1.34 0 0.68 0 0 Z " fill="#356C93" transform="translate(137,326)"/>
<path d="M0 0 C0.99 0.33 1.98 0.66 3 1 C5.22574335 1.22451458 7.45581519 1.40782878 9.6875 1.5625 C10.86699219 1.64628906 12.04648438 1.73007813 13.26171875 1.81640625 C14.61716797 1.90728516 14.61716797 1.90728516 16 2 C16 2.33 16 2.66 16 3 C10.72 3 5.44 3 0 3 C0 2.01 0 1.02 0 0 Z " fill="#3F678B" transform="translate(240,251)"/>
<path d="M0 0 C2.64 0 5.28 0 8 0 C7.67 0.99 7.34 1.98 7 3 C5.02 3 3.04 3 1 3 C0.67 2.01 0.34 1.02 0 0 Z " fill="#4E799D" transform="translate(201,354)"/>
<path d="M0 0 C2.125 0.9375 2.125 0.9375 4 2 C3.67 2.99 3.34 3.98 3 5 C1.35 4.67 -0.3 4.34 -2 4 C-2 3.01 -2 2.02 -2 1 C-1.34 0.67 -0.68 0.34 0 0 Z " fill="#296796" transform="translate(299,333)"/>
<path d="M0 0 C2.64 0 5.28 0 8 0 C8 0.66 8 1.32 8 2 C7.01 2.33 6.02 2.66 5 3 C4.67 3.66 4.34 4.32 4 5 C4.99 5.33 5.98 5.66 7 6 C5.68 6 4.36 6 3 6 C3 5.01 3 4.02 3 3 C2.34 3 1.68 3 1 3 C0.67 2.01 0.34 1.02 0 0 Z " fill="#256799" transform="translate(259,324)"/>
<path d="M0 0 C0 0.33 0 0.66 0 1 C-3 2 -6 3 -9 4 C-9.66 3.67 -10.32 3.34 -11 3 C-11 2.34 -11 1.68 -11 1 C-7.2297564 -1.56376565 -4.32597804 -0.83191885 0 0 Z " fill="#3575A2" transform="translate(294,139)"/>
<path d="M0 0 C0.33 0.99 0.66 1.98 1 3 C-1.91482778 3.80967438 -3.46113217 4.21845993 -6.3125 3.0625 C-6.869375 2.711875 -7.42625 2.36125 -8 2 C-4.91190305 0.23537317 -3.76687864 0 0 0 Z " fill="#326B96" transform="translate(242,131)"/>
<path d="M0 0 C0.66 0.33 1.32 0.66 2 1 C2 1.66 2 2.32 2 3 C2.66 3.33 3.32 3.66 4 4 C2.35 4.66 0.7 5.32 -1 6 C-1 5.34 -1 4.68 -1 4 C-1.66 3.67 -2.32 3.34 -3 3 C-2.01 2.01 -1.02 1.02 0 0 Z " fill="#296498" transform="translate(273,274)"/>
<path d="M0 0 C1.98 0.66 3.96 1.32 6 2 C5.34 3.32 4.68 4.64 4 6 C2.62437146 4.71034824 1.29233607 3.37310707 0 2 C0 1.34 0 0.68 0 0 Z " fill="#3A6F97" transform="translate(414,348)"/>
<path d="M0 0 C0.66 0 1.32 0 2 0 C3.10807948 3.32423843 2.76802174 4.67190578 2 8 C2 8.66 2 9.32 2 10 C1.34 10 0.68 10 0 10 C0 6.7 0 3.4 0 0 Z " fill="#6789B0" transform="translate(221,326)"/>
<path d="M0 0 C-1.1875 1.5 -1.1875 1.5 -3 3 C-5.6875 3.1875 -5.6875 3.1875 -8 3 C-6 0 -6 0 -4 -0.75 C-2 -1 -2 -1 0 0 Z " fill="#376B92" transform="translate(266,283)"/>
<path d="M0 0 C1.06546953 3.1964086 1.07427838 5.65747276 1 9 C-0.33333333 6.33333333 -1.66666667 3.66666667 -3 1 C-2.01 0.67 -1.02 0.34 0 0 Z " fill="#497AA0" transform="translate(434,328)"/>
<path d="M0 0 C0.33 0.66 0.66 1.32 1 2 C1.66 2 2.32 2 3 2 C3.66 3.65 4.32 5.3 5 7 C4.01 7.495 4.01 7.495 3 8 C3 7.34 3 6.68 3 6 C2.34 6 1.68 6 1 6 C0.67 4.02 0.34 2.04 0 0 Z " fill="#5F89AB" transform="translate(282,324)"/>
<path d="M0 0 C2 1 2 1 2 1 Z " fill="#007FFF" transform="translate(242,356)"/>
<path d="" fill="#0000FF" transform="translate(0,0)"/>
<path d="" fill="#00FFFF" transform="translate(0,0)"/>
</svg>
